<svg width="120" height="40" viewBox="0 0 120 40" fill="none" xmlns="http://www.w3.org/2000/svg">
<path d="M18.4251 2.05127C16.2536 2.05127 14.1034 2.51558 12.0972 3.41753C10.091 4.31958 8.26826 5.64163 6.73273 7.3083C5.1973 8.97506 3.97935 10.9536 3.14833 13.1313C2.3174 15.3089 1.88965 17.643 1.88965 20C1.88965 22.357 2.3174 24.6911 3.14833 26.8687C3.97935 29.0463 5.1973 31.0249 6.73273 32.6917C8.26826 34.3583 10.091 35.6804 12.0972 36.5825C14.1034 37.4844 16.2536 37.9487 18.4251 37.9487V28.9743C17.3393 28.9743 16.2642 28.7422 15.2611 28.2912C14.2581 27.8402 13.3466 27.1792 12.5789 26.3458C11.8112 25.5125 11.2022 24.5232 10.7867 23.4343C10.3712 22.3455 10.1574 21.1786 10.1574 20C10.1574 18.8214 10.3712 17.6545 10.7867 16.5656C11.2022 15.4768 11.8112 14.4875 12.5789 13.6541C13.3466 12.8208 14.2581 12.1598 15.2611 11.7088C16.2642 11.2577 17.3393 11.0256 18.4251 11.0256V2.05127Z" fill="#0F52FF"/>
<path d="M18.4249 25.9828C21.469 25.9828 23.9366 23.3043 23.9366 20C23.9366 16.6957 21.469 14.0171 18.4249 14.0171C15.3807 14.0171 12.9131 16.6957 12.9131 20C12.9131 23.3043 15.3807 25.9828 18.4249 25.9828Z" fill="#0F52FF"/>
<path d="M1.88965 20C1.88965 22.357 2.3174 24.6911 3.14833 26.8687C3.97935 29.0464 5.1973 31.0249 6.73273 32.6917C8.26826 34.3584 10.091 35.6804 12.0972 36.5825C14.1034 37.4844 16.2536 37.9487 18.4251 37.9487C20.5965 37.9487 22.7468 37.4844 24.753 36.5825C26.7591 35.6804 28.5819 34.3584 30.1174 32.6917C31.6529 31.0249 32.8708 29.0464 33.7018 26.8687C34.5328 24.6911 34.9605 22.357 34.9605 20H26.6928C26.6928 21.1786 26.479 22.3455 26.0634 23.4344C25.6479 24.5232 25.039 25.5125 24.2713 26.3458C23.5035 27.1792 22.5921 27.8402 21.589 28.2912C20.5859 28.7423 19.5108 28.9744 18.4251 28.9744C17.3393 28.9744 16.2642 28.7423 15.2611 28.2912C14.2581 27.8402 13.3466 27.1792 12.5789 26.3458C11.8112 25.5125 11.2022 24.5232 10.7867 23.4344C10.3712 22.3455 10.1574 21.1786 10.1574 20H1.88965Z" fill="#5BD0F4"/>
<path d="M23.9367 19.9999C23.9367 18.4132 23.356 16.8914 22.3224 15.7694C21.2887 14.6473 19.8868 14.017 18.425 14.017C16.9631 14.017 15.5612 14.6473 14.5275 15.7694C13.4938 16.8914 12.9131 18.4132 12.9131 19.9999H18.425H23.9367Z" fill="#5BD0F4"/>
<path d="M43.5967 13.2565H41.543V25.6411H43.5967V13.2565Z" fill="#0F52FF"/>
<path d="M44.9375 21.2533C44.9375 24.1195 46.763 25.8887 49.1753 25.8887C51.5876 25.8887 53.4131 24.1195 53.4131 21.2533C53.4131 18.3872 51.5876 16.6179 49.1753 16.6179C46.763 16.6179 44.9375 18.3872 44.9375 21.2533ZM46.9912 21.2533C46.9912 19.5548 47.904 18.5641 49.1753 18.5641C50.4466 18.5641 51.3594 19.5548 51.3594 21.2533C51.3594 22.9518 50.4466 23.9425 49.1753 23.9425C47.904 23.9425 46.9912 22.9518 46.9912 21.2533Z" fill="#0F52FF"/>
<path d="M60.7517 16.8656V18.0509H60.5887C60.0998 17.2902 59.3174 16.6179 57.9157 16.6179C55.9924 16.6179 54.2646 18.3872 54.2646 21.1118C54.2646 23.8364 55.9924 25.6056 57.9157 25.6056C59.3174 25.6056 60.0998 24.9156 60.5561 24.2256H60.7191V25.0748C60.7191 26.7733 59.8064 27.5518 58.4698 27.5518C57.1333 27.5518 56.4487 26.7733 56.1716 25.7648L54.3298 26.6318C54.7536 27.9586 55.9924 29.4272 58.5024 29.4272C61.0777 29.4272 62.7728 27.9586 62.7728 25.1279V16.8656H60.7517ZM58.535 23.6948C57.2637 23.6948 56.3183 22.7041 56.3183 21.1118C56.3183 19.5195 57.2637 18.5287 58.535 18.5287C59.8064 18.5287 60.7517 19.5195 60.7517 21.1118C60.7517 22.7041 59.8064 23.6948 58.535 23.6948Z" fill="#0F52FF"/>
<path d="M64.1016 21.2533C64.1016 24.1195 65.9271 25.8887 68.3394 25.8887C70.7516 25.8887 72.5771 24.1195 72.5771 21.2533C72.5771 18.3872 70.7516 16.6179 68.3394 16.6179C65.9271 16.6179 64.1016 18.3872 64.1016 21.2533ZM66.1553 21.2533C66.1553 19.5548 67.068 18.5641 68.3394 18.5641C69.6107 18.5641 70.5235 19.5548 70.5235 21.2533C70.5235 22.9518 69.6107 23.9425 68.3394 23.9425C67.068 23.9425 66.1553 22.9518 66.1553 21.2533Z" fill="#0F52FF"/>
<path d="M74.1895 14.3179C74.1895 15.2203 74.8254 15.8395 75.6408 15.8395C76.4553 15.8395 77.0912 15.2203 77.0912 14.3179C77.0912 13.4157 76.4553 12.7964 75.6408 12.7964C74.8254 12.7964 74.1895 13.4157 74.1895 14.3179ZM76.6669 16.8656H74.6137V25.641H76.6669V16.8656Z" fill="#5BD0F4"/>
<path d="M78.4971 29.1795H80.5512V24.5087H80.7138C81.1701 25.2164 81.9525 25.8887 83.3547 25.8887C85.2775 25.8887 87.0057 24.1195 87.0057 21.2533C87.0057 18.3872 85.2775 16.6179 83.3547 16.6179C81.9525 16.6179 81.1701 17.2902 80.6816 18.051H80.5182V16.8656H78.4971V29.1795ZM82.7349 23.9779C81.464 23.9779 80.5182 22.9872 80.5182 21.2533C80.5182 19.5195 81.464 18.5287 82.7349 18.5287C84.0067 18.5287 84.9516 19.5195 84.9516 21.2533C84.9516 22.9872 84.0067 23.9779 82.7349 23.9779Z" fill="#5BD0F4"/>
<path d="M88.204 19.3249C88.204 21.0587 89.5401 21.6957 91.2352 22.0495L91.6594 22.1379C92.6695 22.3502 93.1259 22.6157 93.1259 23.1818C93.1259 23.748 92.6695 24.1902 91.7246 24.1902C90.7788 24.1902 90.0135 23.7656 89.8009 22.4918L87.9102 23.0225C88.188 24.8625 89.6053 25.8887 91.7246 25.8887C93.7779 25.8887 95.1149 24.8449 95.1149 23.0049C95.1149 21.1648 93.7457 20.6695 91.9202 20.2803L91.496 20.1918C90.6484 20.0148 90.192 19.7672 90.192 19.1834C90.192 18.6526 90.6163 18.3164 91.3987 18.3164C92.181 18.3164 92.7347 18.6702 92.9303 19.6256L94.7889 19.0064C94.3977 17.591 93.2081 16.6179 91.3987 16.6179C89.4749 16.6179 88.204 17.591 88.204 19.3249Z" fill="#5BD0F4"/>
<path d="M104.339 25.641V16.8656H102.286V21.3948C102.286 23.0225 101.553 23.9779 100.297 23.9779C99.1887 23.9779 98.5698 23.3233 98.5698 21.9964V16.8656H96.5156V22.1025C96.5156 24.2787 97.7714 25.7825 99.6621 25.7825C101.145 25.7825 101.83 25.0748 102.156 24.3318H102.318V25.641H104.339Z" fill="#5BD0F4"/>
<path d="M106.161 16.8657V25.641H108.215V20.4041C108.215 19.201 108.737 18.5287 109.682 18.5287C110.497 18.5287 110.986 19.0241 110.986 19.9795V25.641H113.04V20.4041C113.04 19.201 113.561 18.5287 114.506 18.5287C115.322 18.5287 115.81 19.0241 115.81 19.9795V25.641H117.864V19.8734C117.864 17.7503 116.658 16.7241 115.158 16.7241C113.838 16.7241 113.235 17.361 112.844 18.1041H112.681C112.306 17.2726 111.638 16.7241 110.464 16.7241C109.291 16.7241 108.655 17.2903 108.346 17.9626H108.182V16.8657H106.161Z" fill="#5BD0F4"/>
</svg>
