<svg width="140" height="40" viewBox="0 0 140 40" fill="none" xmlns="http://www.w3.org/2000/svg">
<path d="M24.6377 11.39H26.7589V25.31H33.1225V27.31H24.6377V11.39ZM39.7301 11.39C40.9887 11.39 42.219 11.7419 43.2655 12.4012C44.312 13.0605 45.1278 13.9975 45.6094 15.0939C46.091 16.1903 46.217 17.3967 45.9715 18.5605C45.7259 19.7244 45.1199 20.7935 44.2298 21.6326C43.3399 22.4718 42.206 23.0432 40.9716 23.2747C39.7372 23.5062 38.4577 23.3874 37.2949 22.9333C36.132 22.4791 35.1382 21.7101 34.439 20.7234C33.7397 19.7367 33.3665 18.5767 33.3665 17.39C33.3665 16.6021 33.5311 15.8218 33.8509 15.0939C34.1706 14.3659 34.6394 13.7045 35.2304 13.1474C35.8213 12.5902 36.5227 12.1482 37.2949 11.8467C38.0669 11.5452 38.8945 11.39 39.7301 11.39ZM39.7301 21.39C40.5692 21.39 41.3894 21.1554 42.0871 20.7159C42.7848 20.2763 43.3285 19.6516 43.6496 18.9207C43.9707 18.1898 44.0547 17.3856 43.891 16.6096C43.7273 15.8337 43.3232 15.121 42.7299 14.5616C42.1366 14.0022 41.3807 13.6212 40.5578 13.4669C39.7348 13.3125 38.8818 13.3917 38.1066 13.6945C37.3315 13.9972 36.6688 14.5099 36.2027 15.1677C35.7365 15.8255 35.4877 16.5989 35.4877 17.39C35.4933 18.4474 35.9427 19.4597 36.7377 20.2055C37.5328 20.9513 38.6086 21.37 39.7301 21.37V21.39ZM35.4877 25.33H43.9725V27.33H35.4877V25.33ZM62.6392 27.33H60.518V25.9C59.15 26.8028 57.5212 27.288 55.8513 27.29C54.4275 27.299 53.0241 26.97 51.7705 26.3333C50.5169 25.6965 49.4534 24.7726 48.6781 23.6466C47.9027 22.5206 47.4403 21.2287 47.3336 19.8899C47.2268 18.5512 47.4791 17.2086 48.0672 15.986C48.6553 14.7633 49.5603 13.6998 50.6988 12.8936C51.8374 12.0873 53.1728 11.5641 54.582 11.3723C55.9913 11.1804 57.4292 11.3261 58.763 11.7958C60.0969 12.2655 61.2841 13.0441 62.215 14.06L60.6559 15.37C59.9478 14.6236 59.053 14.0562 58.0527 13.7195C57.0526 13.3827 55.9789 13.2873 54.9297 13.442C53.8803 13.5967 52.8888 13.9966 52.0453 14.6051C51.202 15.2137 50.5335 16.0115 50.1009 16.9261C49.6683 17.8406 49.4854 18.8426 49.5687 19.8409C49.6521 20.8392 49.999 21.8019 50.5781 22.6413C51.1572 23.4807 51.9498 24.1702 52.8839 24.6468C53.8178 25.1234 54.8636 25.372 55.9256 25.37C56.8069 25.3717 57.6783 25.1939 58.4802 24.8487C59.2819 24.5035 59.9951 23.9991 60.571 23.37H54.8438V21.37H62.6604L62.6392 27.33ZM70.4453 11.43C71.7039 11.43 72.9342 11.7819 73.9807 12.4412C75.0272 13.1005 75.8429 14.0375 76.3245 15.1339C76.8062 16.2303 76.9322 17.4367 76.6866 18.6005C76.4411 19.7644 75.8351 20.8335 74.945 21.6726C74.055 22.5118 72.9212 23.0832 71.6867 23.3147C70.4524 23.5462 69.1729 23.4274 68.01 22.9733C66.8472 22.5191 65.8534 21.7501 65.1541 20.7634C64.4549 19.7767 64.0816 18.6167 64.0816 17.43C64.076 16.637 64.2372 15.8509 64.5558 15.117C64.8744 14.3831 65.3442 13.716 65.9379 13.1544C66.5316 12.5927 67.2376 12.1476 68.0149 11.8447C68.7922 11.5419 69.6254 11.3873 70.4665 11.39L70.4453 11.43ZM70.4453 21.43C71.2843 21.43 72.1046 21.1954 72.8023 20.7559C73.4999 20.3163 74.0437 19.6916 74.3647 18.9607C74.6859 18.2298 74.7699 17.4256 74.6061 16.6496C74.4425 15.8737 74.0384 15.161 73.4451 14.6016C72.8518 14.0422 72.0959 13.6612 71.273 13.5069C70.4499 13.3525 69.597 13.4317 68.8218 13.7345C68.0466 14.0372 67.3839 14.5499 66.9178 15.2077C66.4517 15.8655 66.2028 16.6389 66.2028 17.43C66.2196 18.4839 66.6768 19.489 67.4753 20.2268C68.2736 20.9645 69.3486 21.3754 70.4665 21.37L70.4453 21.43ZM66.2028 25.37H74.6877V27.37H66.2028V25.37ZM79.068 11.39H81.1892V27.29H79.068V11.39ZM84.1271 11.39H86.2483C86.3575 11.3791 86.4677 11.3791 86.5771 11.39C87.4655 11.2991 88.3642 11.3857 89.2147 11.644C90.0652 11.9024 90.8486 12.3267 91.5136 12.8894C92.1787 13.4521 92.7106 14.1406 93.0747 14.91C93.4389 15.6794 93.6271 16.5125 93.6271 17.355C93.6271 18.1975 93.4389 19.0306 93.0747 19.8C92.7106 20.5694 92.1787 21.2579 91.5136 21.8206C90.8486 22.3833 90.0652 22.8076 89.2147 23.066C88.3642 23.3243 87.4655 23.4109 86.5771 23.32H86.2483V27.32H84.1271V11.39ZM86.2483 13.39V21.3H86.5771C87.1762 21.3752 87.7854 21.3289 88.3641 21.164C88.9427 20.9992 89.4772 20.7197 89.9319 20.3443C90.3867 19.9689 90.751 19.5062 91.0007 18.9872C91.2503 18.4682 91.3795 17.9049 91.3795 17.335C91.3795 16.7651 91.2503 16.2018 91.0007 15.6828C90.751 15.1638 90.3867 14.7011 89.9319 14.3257C89.4772 13.9502 88.9427 13.6708 88.3641 13.5059C87.7854 13.3411 87.1762 13.2948 86.5771 13.37C86.4616 13.3813 86.3477 13.4048 86.2377 13.44L86.2483 13.39ZM101.532 12.54L99.9619 13.71C99.6912 13.4432 99.3452 13.2548 98.9648 13.167C98.5843 13.0792 98.1852 13.0956 97.8143 13.2143C97.4433 13.3329 97.1161 13.5489 96.8709 13.8369C96.6257 14.1249 96.4728 14.4729 96.4301 14.84V15C96.4301 15.88 97.0771 16.47 98.3392 16.55C103.197 16.83 105.424 18.98 105.424 21.82V22C105.299 23.124 104.833 24.1904 104.084 25.0724C103.334 25.9544 102.332 26.6147 101.195 26.975C100.059 27.3352 98.8372 27.3802 97.6746 27.1045C96.5121 26.8289 95.458 26.2442 94.6377 25.42L96.2604 24.24C96.6381 24.6217 97.0994 24.9213 97.6122 25.1182C98.125 25.315 98.677 25.4044 99.2301 25.38C100.252 25.4308 101.255 25.1075 102.029 24.4776C102.804 23.8478 103.291 22.9601 103.388 22V21.86C103.388 19.19 100.609 18.7 98.2013 18.48C95.9741 18.28 94.3726 16.97 94.3726 15.08V15C94.451 14.016 94.9273 13.098 95.703 12.4356C96.4786 11.7731 97.4945 11.4167 98.5407 11.44C99.0952 11.4246 99.6468 11.5189 100.16 11.717C100.674 11.9151 101.137 12.2125 101.521 12.59L101.532 12.54ZM113.729 25.26C116.37 25.26 118.459 22.57 118.459 19.26V11.26H120.58V19.26C120.58 23.66 117.526 27.21 113.771 27.21C110.016 27.21 106.962 23.66 106.962 19.26V11.26H109.083V19.26C108.998 22.62 111.088 25.31 113.718 25.31L113.729 25.26ZM136.86 27.26H134.739V17.36L129.85 23.36L124.96 17.36V27.29H122.839V11.39L129.839 20.08L136.839 11.39L136.86 27.26Z" fill="#394149"/>
<path d="M14.4564 9.00006C14.4564 7.55728 13.8486 6.17359 12.7665 5.1534C11.6845 4.1332 10.2169 3.56006 8.68669 3.56006C7.15647 3.56006 5.68893 4.1332 4.6069 5.1534C3.52487 6.17359 2.91699 7.55728 2.91699 9.00006V25.4501L7.66851 28.6601V36.4801H9.70487V28.6601L14.4564 25.4501V9.00006ZM12.42 18.2001L9.70487 20.7601V18.3601L12.42 15.8001V18.2001ZM4.99578 15.8001L7.71093 18.3601V20.7601L4.99578 18.2001V15.8001ZM12.42 13.0801L8.68669 16.6001L4.95336 13.0001V10.6001L8.68669 14.1201L12.42 10.6001V13.0801ZM8.68669 5.48006C9.50776 5.48348 10.305 5.74059 10.9563 6.21199C11.6076 6.68339 12.077 7.34309 12.2928 8.09006L8.68669 11.4801L5.08063 8.09006C5.28844 7.33566 5.75451 6.66701 6.40652 6.18787C7.05854 5.70872 7.86004 5.44585 8.68669 5.44005V5.48006ZM4.95336 24.4801V20.8801L7.66851 23.4401V26.3001L4.95336 24.4801ZM9.70487 26.3101V23.4401L12.42 20.8801V24.4701L9.70487 26.3101Z" fill="#394149"/>
</svg>
