<svg width="120" height="40" viewBox="0 0 120 40" fill="none" xmlns="http://www.w3.org/2000/svg">
<g clip-path="url(#clip0_28_192)">
<path fill-rule="evenodd" clip-rule="evenodd" d="M110.153 25.0711C108.91 25.1703 107.635 24.733 106.736 23.7798L103.78 20.6475C102.77 19.5764 101.993 18.3428 101.475 17.0179C101.418 17.0392 101.359 17.062 101.303 17.0862C101.681 18.2658 102.263 19.3889 103.038 20.4058L105.633 23.8157C106.597 25.0821 108.221 25.6193 109.727 25.3095C109.792 25.2783 109.856 25.2452 109.92 25.2102C110 25.166 110.078 25.1196 110.153 25.0711ZM110.35 24.9366C109.079 25.1015 107.747 24.6828 106.823 23.704L103.869 20.5718C102.869 19.5114 102.1 18.2904 101.586 16.9789C101.636 16.9626 101.684 16.9474 101.734 16.9332C102.405 18.3672 103.388 19.6665 104.635 20.7379L107.916 23.5583C108.734 24.2611 109.765 24.5946 110.784 24.5701C110.651 24.7008 110.505 24.8235 110.35 24.9366ZM110.397 25.0447C110.327 25.0946 110.256 25.1427 110.182 25.1888C110.341 25.1366 110.499 25.0744 110.652 25.0019C110.567 25.0187 110.482 25.033 110.397 25.0447ZM111.06 24.7811C110.904 24.8295 110.747 24.8687 110.589 24.8986C110.719 24.7931 110.841 24.6808 110.956 24.5626C111.123 24.552 111.291 24.5315 111.457 24.5015C111.386 24.5574 111.314 24.6113 111.24 24.6633C111.18 24.7043 111.12 24.7435 111.06 24.7811ZM111.111 24.8841C110.689 25.143 110.234 25.3195 109.767 25.4172C107.826 26.3503 105.435 25.6845 104.334 23.8645L102.126 20.2144C101.568 19.292 101.155 18.3082 100.888 17.2931L97.7776 19.0073C95.8014 20.0965 93.2744 19.4501 92.1333 17.5635C91.839 17.077 91.6657 16.5555 91.6044 16.0307C91.4269 15.5831 91.3407 15.1216 91.3376 14.6661C91.2102 14.203 91.1749 13.7354 91.2218 13.2819C91.1458 12.8092 91.1618 12.3411 91.2579 11.8952C91.2339 11.4168 91.3011 10.9522 91.4458 10.5177C91.4744 10.0395 91.5923 9.58418 91.7838 9.16655C91.8646 8.69406 92.0317 8.25317 92.2678 7.85712C92.3999 7.39543 92.6143 6.97372 92.8923 6.60345C93.0742 6.15757 93.3334 5.75962 93.6504 5.41916C93.8802 4.99363 94.1817 4.62354 94.5344 4.31644C94.8095 3.91624 95.1499 3.57833 95.5338 3.30814C95.8519 2.93755 96.2271 2.63542 96.6386 2.40505C96.9957 2.0682 97.4014 1.80523 97.8366 1.61722C98.2281 1.31778 98.6614 1.09683 99.1138 0.953236C99.5357 0.694477 99.9909 0.517941 100.457 0.420329C102.399 -0.512966 104.79 0.152796 105.891 1.9728L107.731 5.01622C108.42 6.15497 108.89 7.38736 109.132 8.65667L112.448 6.82944C114.424 5.74026 116.951 6.38663 118.093 8.27315C118.386 8.75939 118.56 9.28054 118.621 9.805C118.799 10.2528 118.885 10.7144 118.888 11.1701C119.016 11.633 119.051 12.1005 119.004 12.554C119.08 13.0276 119.064 13.4966 118.968 13.9433C118.992 14.4213 118.924 14.8855 118.78 15.3195C118.751 15.7971 118.634 16.252 118.442 16.6693C118.361 17.1417 118.195 17.5826 117.959 17.9786C117.826 18.4405 117.612 18.8625 117.334 19.2329C117.152 19.6792 116.893 20.0775 116.575 20.4182C116.345 20.8436 116.043 21.2136 115.691 21.5206C115.416 21.9209 115.076 22.2588 114.691 22.5291C114.374 22.8996 113.998 23.2017 113.586 23.4321C113.23 23.769 112.823 24.032 112.388 24.22C111.997 24.5195 111.564 24.7405 111.111 24.8841ZM111.945 24.3829C111.8 24.4703 111.651 24.5479 111.498 24.6157C111.566 24.5625 111.632 24.5075 111.696 24.4509C111.78 24.4307 111.862 24.4081 111.945 24.3829ZM112.744 23.9145C112.888 23.8318 113.028 23.7397 113.163 23.6384C113.084 23.6716 113.004 23.7025 112.923 23.7308C112.865 23.7935 112.806 23.8547 112.744 23.9145ZM112.69 23.805C112.627 23.8675 112.56 23.9285 112.492 23.9875C112.438 24.0343 112.382 24.0793 112.326 24.1226C112.178 24.1863 112.025 24.2409 111.871 24.2865C111.989 24.1685 112.099 24.0447 112.199 23.9158C112.364 23.8885 112.529 23.8515 112.69 23.805ZM113.079 23.5499C113.227 23.4892 113.373 23.4196 113.514 23.3415C113.564 23.2927 113.615 23.2425 113.663 23.1905C113.725 23.1249 113.784 23.0577 113.84 22.9893C113.685 23.0516 113.526 23.1048 113.364 23.1486C113.279 23.2867 113.183 23.4208 113.079 23.5499ZM113.199 23.1898C113.096 23.3442 112.98 23.4928 112.854 23.6345C112.672 23.6966 112.486 23.7462 112.298 23.7828C112.412 23.6225 112.513 23.4555 112.6 23.2829C112.801 23.2659 113.001 23.2346 113.199 23.1898ZM113.448 23.0065C113.631 22.9512 113.811 22.8834 113.984 22.8034C114.096 22.6497 114.194 22.4905 114.28 22.3266C114.088 22.3909 113.893 22.4419 113.694 22.479C113.626 22.6593 113.544 22.8356 113.448 23.0065ZM113.559 22.5021C113.483 22.6906 113.393 22.8745 113.286 23.0517C113.08 23.1048 112.87 23.1424 112.658 23.1638C112.75 22.9656 112.824 22.761 112.88 22.5523C113.109 22.5535 113.336 22.5365 113.559 22.5021ZM113.604 22.3797C113.68 22.1689 113.736 21.9529 113.771 21.7343C113.52 21.751 113.265 21.7458 113.009 21.7173C113 21.9604 112.965 22.2021 112.909 22.4391C113.143 22.4387 113.377 22.4185 113.604 22.3797ZM113.739 22.3548C113.808 22.1485 113.86 21.9376 113.893 21.7245C114.12 21.7028 114.343 21.6633 114.561 21.6068C114.508 21.8018 114.438 21.9937 114.351 22.1806C114.152 22.2539 113.947 22.3123 113.739 22.3548ZM114.44 22.2692C114.369 22.4151 114.289 22.5579 114.2 22.6968C114.34 22.6215 114.478 22.538 114.609 22.4463C114.655 22.3926 114.699 22.3375 114.741 22.2811C114.796 22.2095 114.847 22.1369 114.896 22.0632C114.748 22.1406 114.596 22.2095 114.44 22.2692ZM115.019 21.8639C114.855 21.9607 114.683 22.0461 114.507 22.1194C114.584 21.9399 114.646 21.7565 114.694 21.5704C114.888 21.5136 115.077 21.4435 115.26 21.3605C115.193 21.5319 115.112 21.7001 115.019 21.8639ZM115.107 21.9445C115.065 22.0171 115.02 22.0888 114.972 22.1596C115.096 22.0501 115.213 21.9322 115.322 21.8063C115.252 21.8545 115.18 21.9006 115.107 21.9445ZM115.6 21.4465C115.48 21.5508 115.353 21.6476 115.22 21.7365C115.295 21.5895 115.359 21.4395 115.412 21.2874C115.561 21.2125 115.705 21.1288 115.844 21.037C115.803 21.1151 115.76 21.1925 115.714 21.269C115.678 21.3295 115.64 21.3886 115.6 21.4465ZM115.93 21.1253C116.041 21.004 116.144 20.8751 116.24 20.739C116.175 20.794 116.109 20.8469 116.041 20.8978C116.007 20.9743 115.97 21.0501 115.93 21.1253ZM116.131 20.6798C116.188 20.5261 116.236 20.3705 116.272 20.2138C116.412 20.1244 116.546 20.0268 116.674 19.9216C116.643 20.0034 116.608 20.0846 116.571 20.1654C116.54 20.2292 116.51 20.2919 116.477 20.3535C116.368 20.4693 116.252 20.5782 116.131 20.6798ZM115.944 20.8266C116.02 20.6543 116.08 20.4789 116.128 20.3019C115.956 20.4025 115.776 20.4912 115.589 20.567C115.561 20.7568 115.52 20.9455 115.463 21.1316C115.631 21.0412 115.791 20.9393 115.944 20.8266ZM115.315 21.2082C115.38 21.0136 115.429 20.8157 115.461 20.6164C115.251 20.6943 115.033 20.7559 114.809 20.8001C114.8 21.0155 114.771 21.2303 114.724 21.4424C114.927 21.3793 115.125 21.3009 115.315 21.2082ZM114.595 21.4805C114.646 21.2635 114.678 21.043 114.689 20.822C114.441 20.8638 114.187 20.8841 113.929 20.8812C113.946 21.1239 113.94 21.3676 113.909 21.609C114.142 21.5852 114.371 21.542 114.595 21.4805ZM113.788 21.6195C113.82 21.3738 113.828 21.1255 113.81 20.8783C113.58 20.8693 113.347 20.8418 113.114 20.7945L112.925 20.7563C112.987 21.0365 113.016 21.3205 113.012 21.6036C113.273 21.6334 113.533 21.6382 113.788 21.6195ZM112.894 21.5884C112.896 21.3016 112.864 21.0137 112.799 20.7305L111.79 20.5257C111.897 20.802 111.97 21.0848 112.009 21.3691L112.244 21.442C112.46 21.5088 112.677 21.5573 112.894 21.5884ZM111.884 21.3302C111.84 21.0491 111.763 20.7699 111.651 20.4977L108.795 19.9182C106.501 19.4527 104.42 18.3551 102.798 16.7852C102.785 16.7851 102.773 16.7851 102.76 16.7852C104.156 18.3308 105.979 19.4985 108.045 20.1395L111.884 21.3302ZM102.608 16.7892C104.025 18.3851 105.89 19.5902 108.008 20.2472L111.9 21.4545C111.936 21.7429 111.936 22.0324 111.901 22.3173C111.689 22.2648 111.479 22.1949 111.272 22.1069L107.238 20.3926C105.358 19.5935 103.747 18.3465 102.547 16.7925C102.567 16.7913 102.588 16.7902 102.608 16.7892ZM102.661 16.6738C102.669 16.6735 102.677 16.6734 102.684 16.6732C102.645 16.6344 102.606 16.5954 102.568 16.556C102.564 16.5555 102.561 16.555 102.558 16.5545C102.592 16.5945 102.626 16.6343 102.661 16.6738ZM102.387 16.5329C102.429 16.5827 102.471 16.6322 102.514 16.6813C102.498 16.6824 102.481 16.6835 102.465 16.6849C102.426 16.6333 102.388 16.5815 102.35 16.5292C102.362 16.5304 102.375 16.5316 102.387 16.5329ZM102.97 16.7896C104.563 18.2991 106.59 19.3549 108.82 19.8074L111.597 20.3708C111.536 20.2374 111.466 20.1059 111.388 19.9769L111.209 19.6798L109.541 19.5125C107.097 19.2673 104.81 18.3082 102.98 16.7901C102.977 16.79 102.974 16.7898 102.97 16.7896ZM103.336 16.9278C105.099 18.3015 107.256 19.1694 109.554 19.3999L111.136 19.5585L110.819 19.0345H110.239C107.748 19.0345 105.338 18.2892 103.336 16.9278ZM110.956 19.0345L111.281 19.5732L112.377 19.6831C112.302 19.5565 112.219 19.4325 112.127 19.3121L111.916 19.0345H110.956ZM111.83 18.9214H110.887L110.64 18.5115C110.72 18.5049 110.8 18.4976 110.88 18.4895L111.457 18.4317L111.83 18.9214ZM112.062 19.0345L112.223 19.2455C112.334 19.3917 112.434 19.5427 112.52 19.6975L113.568 19.8026C113.464 19.5365 113.328 19.2786 113.16 19.0345H112.062ZM113.079 18.9214H111.977L111.593 18.4181L112.548 18.3223L112.789 18.5771C112.893 18.6878 112.99 18.8028 113.079 18.9214ZM113.3 19.0345C113.466 19.2835 113.599 19.5456 113.7 19.8158L113.945 19.8405C114.17 19.8631 114.394 19.8674 114.612 19.8547C114.552 19.5739 114.459 19.2985 114.333 19.0345H113.3ZM114.276 18.9214H113.222C113.119 18.776 113.003 18.6356 112.877 18.5014L112.694 18.3076L113.785 18.1982C113.98 18.4241 114.143 18.6669 114.276 18.9214ZM114.462 19.0345C114.583 19.2965 114.673 19.5687 114.732 19.8461C114.993 19.8235 115.248 19.7766 115.494 19.7076C115.472 19.4609 115.425 19.2165 115.355 18.9783C115.127 19.0153 114.893 19.0345 114.655 19.0345H114.462ZM115.32 18.8689C115.103 18.9034 114.881 18.9214 114.655 18.9214H114.408C114.279 18.6627 114.118 18.4152 113.926 18.1841L114.952 18.0811C115.106 18.3311 115.229 18.5956 115.32 18.8689ZM115.472 18.9575C115.54 19.1916 115.587 19.4313 115.61 19.6733C115.833 19.6038 116.047 19.516 116.252 19.4117C116.256 19.189 116.239 18.9672 116.201 18.7487C115.968 18.8388 115.724 18.9092 115.472 18.9575ZM116.18 18.6346C115.943 18.7278 115.695 18.7999 115.438 18.8485C115.349 18.5784 115.23 18.3165 115.081 18.0682L115.272 18.049C115.509 18.0252 115.74 17.9826 115.962 17.9232C116.059 18.1531 116.132 18.3915 116.18 18.6346ZM116.314 18.7035C116.352 18.9161 116.371 19.1318 116.371 19.3485C116.556 19.2465 116.732 19.1305 116.898 19.0022C116.92 18.7988 116.924 18.5955 116.912 18.3942C116.723 18.5123 116.523 18.6159 116.314 18.7035ZM116.902 18.2645C116.71 18.3888 116.506 18.4975 116.292 18.5889C116.242 18.3505 116.17 18.1167 116.076 17.8908C116.322 17.8175 116.558 17.7233 116.78 17.6103C116.84 17.8239 116.881 18.0428 116.902 18.2645ZM117.026 18.3205C117.041 18.5116 117.041 18.7045 117.026 18.8978C117.17 18.776 117.305 18.6444 117.43 18.5037C117.466 18.3203 117.488 18.1366 117.496 17.9541C117.349 18.0868 117.192 18.2094 117.026 18.3205ZM117.5 17.7928C117.349 17.937 117.186 18.0698 117.014 18.1898C116.99 17.9744 116.947 17.7617 116.886 17.5541C117.085 17.4461 117.272 17.3231 117.447 17.1868C117.481 17.3858 117.499 17.5884 117.5 17.7928ZM117.618 17.8394C117.616 17.9998 117.603 18.1613 117.58 18.323C117.678 18.1995 117.767 18.0699 117.848 17.935C117.867 17.8685 117.884 17.8011 117.899 17.7329C117.919 17.6464 117.935 17.5599 117.947 17.4736C117.845 17.6019 117.735 17.724 117.618 17.8394ZM117.974 17.2441C117.865 17.3963 117.746 17.5406 117.616 17.6761C117.61 17.4825 117.588 17.2906 117.553 17.1022C117.705 16.9751 117.848 16.8375 117.98 16.691C117.992 16.8733 117.99 17.058 117.974 17.2441ZM118.09 17.2831C118.082 17.3658 118.072 17.4488 118.058 17.5319C118.124 17.384 118.18 17.231 118.227 17.0735C118.183 17.1448 118.138 17.2147 118.09 17.2831ZM118.327 16.6369C118.261 16.7791 118.187 16.9167 118.104 17.0493C118.109 16.8862 118.104 16.7245 118.088 16.5647C118.192 16.4385 118.288 16.3061 118.376 16.1685C118.372 16.2555 118.366 16.3429 118.356 16.4308C118.348 16.5002 118.339 16.5688 118.327 16.6369ZM118.492 16.215C118.541 16.0615 118.581 15.9039 118.61 15.7429C118.575 15.818 118.537 15.892 118.497 15.9646C118.498 16.0476 118.497 16.1311 118.492 16.215ZM118.485 15.7306C118.553 15.5907 118.612 15.4465 118.662 15.2986C118.666 15.2296 118.668 15.1602 118.668 15.0903C118.668 15.0021 118.665 14.9146 118.659 14.8279C118.587 14.9735 118.506 15.1145 118.417 15.2505C118.449 15.4077 118.473 15.568 118.485 15.7306ZM118.379 15.0912C118.477 14.9331 118.562 14.7683 118.635 14.598C118.61 14.4127 118.572 14.2315 118.52 14.0555C118.423 14.2249 118.314 14.3875 118.192 14.5422C118.268 14.7195 118.331 14.9029 118.379 15.0912ZM118.108 14.6458C118.184 14.8337 118.245 15.0285 118.29 15.2285C118.175 15.3992 118.045 15.5612 117.902 15.7127C117.832 15.5067 117.743 15.3073 117.64 15.1161C117.809 14.9712 117.966 14.8137 118.108 14.6458ZM118.138 14.4215C118.263 14.2565 118.375 14.0825 118.471 13.9011C118.404 13.7067 118.322 13.5192 118.225 13.3399C118.103 13.5211 117.964 13.6933 117.811 13.8544C117.936 14.034 118.045 14.2236 118.138 14.4215ZM117.728 13.9394C117.854 14.1246 117.964 14.3207 118.056 14.5254C117.914 14.7001 117.755 14.8636 117.581 15.0135C117.457 14.8015 117.313 14.6005 117.15 14.4134C117.36 14.2713 117.553 14.1123 117.728 13.9394ZM117.742 13.7582C117.899 13.5917 118.039 13.4133 118.161 13.2253C118.047 13.0308 117.917 12.8468 117.77 12.6752C117.615 12.8646 117.44 13.042 117.247 13.2043C117.43 13.3741 117.596 13.5595 117.742 13.7582ZM117.157 13.2782C117.343 13.4507 117.512 13.64 117.66 13.8433C117.483 14.0204 117.286 14.1826 117.072 14.327C116.877 14.1146 116.656 13.9217 116.414 13.7525L116.58 13.6611C116.786 13.5473 116.98 13.4189 117.157 13.2782ZM117.16 13.1261C117.359 12.9612 117.536 12.7802 117.692 12.5864C116.957 11.7735 115.868 11.2593 114.655 11.2593H110.239C109.925 11.2593 109.616 11.2217 109.317 11.1494C109.313 11.2279 109.309 11.3065 109.304 11.3851C109.65 11.5325 110.021 11.6286 110.405 11.6672L114.797 12.1077C115.715 12.1998 116.53 12.5721 117.16 13.1261ZM109.296 11.5053C109.641 11.648 110.011 11.7415 110.393 11.7797L114.784 12.2204C115.67 12.3093 116.459 12.6671 117.07 13.1999C116.9 13.3332 116.717 13.4548 116.52 13.5631L116.307 13.6805C115.875 13.3975 115.378 13.1889 114.832 13.0783L110.513 12.202C110.069 12.1118 109.651 11.9441 109.279 11.7112C109.284 11.6425 109.29 11.5739 109.296 11.5053ZM109.188 11.3335C109.193 11.262 109.196 11.1905 109.199 11.119C109.172 11.1115 109.144 11.1038 109.118 11.0957C109.12 11.1645 109.122 11.2334 109.123 11.3023C109.144 11.3129 109.166 11.3233 109.188 11.3335ZM109.124 11.4297C109.143 11.4385 109.161 11.447 109.18 11.4555C109.176 11.5164 109.171 11.5772 109.165 11.6381C109.152 11.6285 109.138 11.6189 109.123 11.6091C109.124 11.5493 109.124 11.4895 109.124 11.4297ZM109.003 11.2408C109.001 11.1797 109 11.1187 108.998 11.0577C108.979 11.0512 108.959 11.0445 108.94 11.0377C108.946 11.0972 108.953 11.1567 108.959 11.2163C108.973 11.2245 108.988 11.2327 109.003 11.2408ZM108.971 11.3532C108.982 11.3592 108.994 11.3652 109.005 11.3711C109.006 11.4218 109.006 11.4725 109.005 11.5233C108.998 11.5175 108.99 11.5115 108.982 11.5056C108.979 11.4548 108.975 11.4039 108.971 11.3532ZM108.832 11.1427C108.826 11.0922 108.82 11.0417 108.815 10.9914C108.802 10.9866 108.791 10.9819 108.779 10.977C108.788 11.0272 108.798 11.0774 108.807 11.1276C108.815 11.1326 108.823 11.1377 108.832 11.1427ZM108.833 11.277C108.838 11.2794 108.841 11.2818 108.845 11.2842C108.849 11.3238 108.853 11.3635 108.856 11.4032L108.853 11.4008C108.847 11.3595 108.84 11.3182 108.833 11.277ZM108.67 11.0384C108.662 10.9992 108.655 10.9601 108.646 10.921C108.642 10.919 108.638 10.9169 108.633 10.9149C108.644 10.9553 108.656 10.9957 108.666 11.0362L108.67 11.0384ZM108.591 10.769C108.6 10.7733 108.608 10.7775 108.617 10.7816C108.606 10.7319 108.595 10.6822 108.583 10.6325C108.571 10.6291 108.559 10.6255 108.546 10.6219C108.561 10.6708 108.576 10.7198 108.591 10.769ZM108.408 10.5793C108.42 10.6175 108.433 10.6556 108.444 10.694L108.441 10.6922C108.426 10.6529 108.41 10.6137 108.395 10.5746C108.4 10.5762 108.403 10.5777 108.408 10.5793ZM108.504 10.4905C108.52 10.4956 108.537 10.5006 108.553 10.5055C108.539 10.446 108.523 10.3865 108.508 10.3273C108.487 10.3247 108.467 10.3221 108.446 10.3193C108.466 10.3762 108.485 10.4333 108.504 10.4905ZM108.314 10.2986C108.331 10.3469 108.348 10.3952 108.364 10.4436C108.355 10.4404 108.345 10.4371 108.337 10.4337C108.317 10.3863 108.297 10.3389 108.276 10.2917C108.288 10.2941 108.301 10.2965 108.314 10.2986ZM108.404 10.1985C108.428 10.2022 108.452 10.2056 108.476 10.2089C108.457 10.1396 108.437 10.0705 108.417 10.0017C108.388 10.0026 108.36 10.0032 108.332 10.0035C108.357 10.0683 108.38 10.1333 108.404 10.1985ZM108.205 10.0028C108.227 10.0601 108.249 10.1176 108.27 10.1754C108.253 10.1721 108.237 10.1687 108.22 10.1653C108.195 10.1103 108.169 10.0555 108.143 10.0009C108.164 10.0017 108.185 10.0024 108.205 10.0028ZM108.288 9.89045C108.32 9.89045 108.351 9.89009 108.382 9.88936C108.358 9.80973 108.332 9.73027 108.306 9.65118C108.27 9.658 108.235 9.66436 108.2 9.67018C108.23 9.74327 108.26 9.81673 108.288 9.89045ZM108.079 9.68809C108.107 9.75455 108.134 9.82127 108.16 9.88827C108.137 9.88745 108.112 9.88636 108.088 9.88509C108.058 9.82255 108.027 9.76027 107.996 9.69827C108.023 9.69518 108.051 9.69182 108.079 9.68809ZM108.154 9.56273C108.192 9.55664 108.231 9.55 108.269 9.54282C108.238 9.45145 108.204 9.36055 108.17 9.27009C108.128 9.28573 108.086 9.30064 108.043 9.31482C108.081 9.397 108.118 9.47964 108.154 9.56273ZM107.931 9.35054C107.965 9.42655 108 9.503 108.033 9.57982C108.001 9.58364 107.971 9.58709 107.94 9.59027C107.902 9.51982 107.865 9.44973 107.827 9.38009C107.861 9.37073 107.896 9.36091 107.931 9.35054ZM107.996 9.21091C108.04 9.19609 108.085 9.18027 108.13 9.16373C107.474 7.47363 106.395 5.9428 104.966 4.71451L102.23 2.36302C101.403 1.653 100.354 1.331 99.3252 1.38473C99.1814 1.53681 99.0528 1.69856 98.9386 1.8681C99.7128 1.90463 100.485 2.14935 101.16 2.61685L104.138 4.68248C105.83 5.85568 107.152 7.42203 107.996 9.21091ZM98.8662 1.97862C99.6405 2.00301 100.416 2.24114 101.09 2.70846L104.068 4.77408C105.74 5.93319 107.047 7.47991 107.882 9.24645C107.844 9.25745 107.807 9.26791 107.77 9.27773C106.731 7.43595 105.17 5.88774 103.241 4.82483L100.053 3.06771C99.5795 2.80654 99.0738 2.64516 98.5633 2.57674C98.6452 2.37005 98.7471 2.16983 98.8662 1.97862ZM98.8005 1.8638C98.9062 1.70101 99.0252 1.54486 99.1566 1.39691C98.9652 1.4146 98.7747 1.44534 98.5871 1.48907C98.4452 1.61715 98.3147 1.75351 98.1957 1.89676C98.3957 1.87175 98.5985 1.86068 98.8005 1.8638ZM98.0938 2.02538C98.3043 1.9931 98.5166 1.97671 98.73 1.97654C98.6176 2.16443 98.5214 2.36042 98.4424 2.56226C98.2147 2.5384 97.9881 2.53273 97.7624 2.54466C97.8576 2.36465 97.9681 2.19091 98.0938 2.02538ZM98.0262 1.92128C98.1271 1.79246 98.2357 1.66865 98.3538 1.5507C98.1995 1.59629 98.0481 1.65093 97.8995 1.71456C97.8433 1.75795 97.7871 1.80303 97.7328 1.84978C97.6643 1.90885 97.5986 1.96968 97.5347 2.03213C97.6966 1.98565 97.8605 1.94865 98.0262 1.92128ZM97.3719 2.20274C97.5528 2.14056 97.7385 2.09101 97.9271 2.05432C97.8128 2.21454 97.7119 2.38166 97.6252 2.55411C97.4233 2.57123 97.2233 2.60244 97.0262 2.6473C97.129 2.49297 97.2443 2.34434 97.3719 2.20274ZM97.3024 2.10635C97.3595 2.04377 97.4185 1.98255 97.4805 1.92283C97.3366 2.00547 97.1966 2.09746 97.0624 2.19875C97.1414 2.16553 97.2214 2.13472 97.3024 2.10635ZM96.7119 2.49563C96.8528 2.41754 96.9976 2.34805 97.1462 2.28732C97.0414 2.41641 96.9462 2.55045 96.8605 2.68856C96.6986 2.73235 96.5395 2.78551 96.3843 2.84783C96.4405 2.77935 96.4995 2.71222 96.5614 2.64657C96.6109 2.59468 96.6605 2.54436 96.7119 2.49563ZM96.3186 2.74442C96.1843 2.84105 96.0547 2.94654 95.9319 3.06076C96.0071 3.0198 96.0833 2.98115 96.1614 2.94485C96.2109 2.87688 96.2633 2.81003 96.3186 2.74442ZM96.0262 3.14036C95.8843 3.21561 95.7481 3.29921 95.6166 3.39095C95.5709 3.44452 95.5262 3.49954 95.4833 3.55602C95.429 3.62746 95.3776 3.70011 95.329 3.77381C95.4776 3.6963 95.63 3.62752 95.7862 3.56781C95.8557 3.42194 95.9357 3.27915 96.0262 3.14036ZM95.7185 3.71761C95.5414 3.79089 95.3709 3.87624 95.2068 3.9731C95.1129 4.1369 95.0328 4.30513 94.9663 4.47641C95.1487 4.39352 95.3376 4.32328 95.5309 4.26648C95.5795 4.08048 95.6414 3.89699 95.7185 3.71761ZM95.6633 4.23001C95.7176 4.03504 95.7871 3.84316 95.8747 3.65632C96.0728 3.58301 96.2776 3.52471 96.4862 3.48216C96.4166 3.68838 96.3652 3.89919 96.3319 4.11229C96.1052 4.13397 95.8814 4.17356 95.6633 4.23001ZM95.5005 4.39449C95.2976 4.45765 95.1004 4.53609 94.9108 4.62884C94.8448 4.82333 94.796 5.02115 94.7638 5.22041C94.9745 5.14251 95.1925 5.08082 95.4157 5.0366C95.4262 4.82134 95.4538 4.60654 95.5005 4.39449ZM95.5357 5.01465C95.5471 4.79372 95.5795 4.57338 95.6309 4.35629C95.8538 4.29485 96.0833 4.2516 96.3157 4.22776C96.2852 4.46902 96.2786 4.71265 96.2957 4.95531C96.0376 4.95254 95.7843 4.97287 95.5357 5.01465ZM95.4128 5.15306C95.1834 5.20001 94.9602 5.26588 94.7453 5.34925C94.7176 5.57033 94.7103 5.79264 94.7228 6.01354C94.9649 5.94724 95.2154 5.90166 95.4719 5.87876C95.429 5.63904 95.409 5.39604 95.4128 5.15306ZM95.5909 5.86981C95.5462 5.62569 95.5262 5.37799 95.5319 5.13046C95.7833 5.0864 96.0424 5.06518 96.3043 5.06868C96.3328 5.35041 96.3919 5.63014 96.4833 5.90264L96.2928 5.88357C96.0557 5.85975 95.8214 5.85563 95.5909 5.86981ZM95.4938 5.99057C95.2323 6.01325 94.9772 6.06016 94.7312 6.12915C94.7531 6.37585 94.7999 6.62023 94.8708 6.85857C95.0985 6.82149 95.3328 6.80218 95.5709 6.80218L95.7624 6.80217C95.6414 6.54028 95.5519 6.26801 95.4938 5.99057ZM95.8928 6.80217C95.7662 6.53814 95.6728 6.26282 95.6128 5.98195C95.8319 5.96923 96.0547 5.97354 96.2805 5.99618L96.5252 6.02069C96.6262 6.29091 96.7585 6.55314 96.9233 6.80217H95.8928ZM95.8166 6.91541H95.5709C95.3443 6.91541 95.1218 6.93337 94.9053 6.96787C94.996 7.24116 95.119 7.50565 95.2738 7.75562L96.2986 7.65272C96.1071 7.42156 95.9471 7.17405 95.8166 6.91541ZM96.4395 7.63863C96.2452 7.41269 96.0814 7.16983 95.949 6.91541H97.0014C97.1052 7.06093 97.2214 7.20151 97.3481 7.33604L97.53 7.52921L96.4395 7.63863ZM96.389 7.75755L95.3424 7.86259C95.5014 8.10241 95.6909 8.32761 95.909 8.5329L96.9814 8.31521L96.7795 8.14121C96.6385 8.02012 96.5081 7.89186 96.389 7.75755ZM97.1252 8.28611L96.8585 8.05706C96.7424 7.95721 96.6338 7.85234 96.5328 7.74313L97.6281 7.63323L98.0643 8.09557C98.0595 8.09662 98.0538 8.09766 98.049 8.09871L97.1252 8.28611ZM97.0909 8.40886L96.0128 8.62752C96.1252 8.72605 96.2452 8.81951 96.3719 8.90723L96.6614 9.10845L97.5595 8.82999C97.5652 8.82839 97.57 8.8268 97.5747 8.82521L97.0909 8.40886ZM97.7062 8.78553L97.2338 8.37976L98.0738 8.20946C98.1014 8.20387 98.129 8.19838 98.1566 8.19298L98.5166 8.57484C98.2443 8.63576 97.9747 8.70598 97.7062 8.78553ZM97.6776 8.91292C97.65 8.92107 97.6233 8.92933 97.5966 8.93768L96.7805 9.19073L97.2947 9.54718C97.5528 9.44127 97.8138 9.34445 98.0776 9.25673L97.6776 8.91292ZM98.2052 9.21482L97.809 8.87385C98.0728 8.79712 98.3395 8.72951 98.6071 8.671L98.9252 9.00806C98.6833 9.06959 98.4433 9.13855 98.2052 9.21482ZM98.1776 9.34327C97.9185 9.42827 97.6605 9.522 97.4062 9.62473L97.8376 9.92427C98.0662 9.82464 98.2976 9.73209 98.5309 9.64682L98.1776 9.34327ZM98.6557 9.60191L98.3071 9.30191C98.5414 9.22836 98.7766 9.16191 99.0147 9.10273L99.2919 9.39682C99.0785 9.45936 98.8662 9.52773 98.6557 9.60191ZM98.63 9.732C98.4005 9.81464 98.1728 9.90427 97.9481 10.0008L99.35 10.9728C99.9738 11.4057 100.439 12.0082 100.689 12.6943C100.691 12.6856 100.692 12.6769 100.694 12.6683C100.591 11.8331 100.174 11.0588 99.5157 10.4927L98.63 9.732ZM100.648 12.9497C100.43 12.1952 99.95 11.529 99.2805 11.0645L97.8243 10.0548C97.5757 10.1652 97.33 10.2842 97.0881 10.4117L99.169 11.5585C99.8014 11.9074 100.309 12.422 100.637 13.0342C100.64 13.006 100.644 12.9778 100.648 12.9497ZM100.609 13.2425C100.299 12.5806 99.7757 12.0238 99.109 11.6565L96.9671 10.4761C96.9424 10.4895 96.9176 10.503 96.8938 10.5165L96.1509 10.9257L99.0528 12.1589C99.6766 12.4242 100.208 12.8445 100.595 13.369C100.6 13.3267 100.604 13.2846 100.609 13.2425ZM100.578 13.5462C100.197 12.9861 99.6528 12.5379 99.0043 12.2623L96.0243 10.9957L95.0699 11.5215C95.2087 11.582 95.3528 11.6356 95.5014 11.6817L99.0024 12.7676C99.6024 12.9535 100.137 13.2785 100.563 13.7068C100.568 13.6533 100.572 13.5997 100.578 13.5462ZM100.553 13.8626C100.128 13.4094 99.5824 13.0665 98.9662 12.8754L95.4643 11.7894C95.2843 11.7335 95.1108 11.6668 94.9446 11.5905L94.0329 12.093C94.4422 12.3525 94.9086 12.544 95.4186 12.6475L99.0195 13.3781C99.5795 13.4917 100.1 13.7247 100.542 14.0536C100.545 13.99 100.549 13.9264 100.553 13.8626ZM100.658 14.1425C100.66 14.091 100.662 14.0394 100.664 13.9877C100.666 13.9902 100.669 13.9925 100.671 13.9949C100.672 14.0487 100.673 14.1025 100.675 14.1564C100.669 14.1517 100.663 14.1472 100.658 14.1425ZM100.538 14.1944C100.094 13.8486 99.5662 13.6047 98.9947 13.4889L95.3938 12.7583C94.8486 12.6476 94.3515 12.4391 93.9185 12.156L93.705 12.2736C93.5087 12.3819 93.3256 12.5035 93.1562 12.6367C93.7671 13.1695 94.5555 13.5274 95.4414 13.6163L99.1033 13.9836C99.61 14.0345 100.096 14.1826 100.533 14.4142C100.534 14.3409 100.535 14.2676 100.538 14.1944ZM100.651 14.4795C100.651 14.4159 100.652 14.3523 100.654 14.2887C100.662 14.2965 100.672 14.3045 100.681 14.3124C100.684 14.3762 100.688 14.4399 100.692 14.5035C100.679 14.4955 100.664 14.4875 100.651 14.4795ZM100.532 14.544C100.094 14.3021 99.6033 14.1477 99.0909 14.0963L95.429 13.7289C94.5115 13.6368 93.6956 13.2645 93.065 12.7105C92.8675 12.8755 92.6901 13.0566 92.5334 13.2505C93.2694 14.0632 94.3573 14.5775 95.5709 14.5775H99.2528C99.6938 14.5775 100.128 14.6517 100.535 14.793C100.533 14.7101 100.532 14.6271 100.532 14.544ZM100.655 14.8368C100.653 14.7621 100.652 14.6874 100.651 14.6126C100.668 14.6229 100.685 14.6334 100.702 14.644C100.708 14.7171 100.715 14.7902 100.721 14.8631C100.7 14.8542 100.678 14.8454 100.655 14.8368ZM100.539 14.9151C100.132 14.7681 99.6966 14.6907 99.2528 14.6907H95.5709C94.3308 14.6907 93.2182 14.1692 92.4607 13.3433C92.3234 13.5245 92.2038 13.716 92.1025 13.9152C92.9132 15.0131 94.3061 15.6708 95.8052 15.5205L99.4662 15.1531C99.8319 15.1165 100.198 15.1315 100.552 15.1951C100.546 15.1018 100.542 15.0085 100.539 14.9151ZM100.673 15.2185C100.667 15.1327 100.662 15.0468 100.66 14.9609C100.684 14.9711 100.71 14.9815 100.735 14.9923C100.744 15.0748 100.755 15.1572 100.765 15.2395C100.735 15.2321 100.703 15.2252 100.673 15.2185ZM100.56 15.3118C100.207 15.2456 99.8433 15.2292 99.4786 15.2657L95.8176 15.633C94.2984 15.7855 92.8851 15.1317 92.045 14.0331C91.9584 14.2193 91.8875 14.4115 91.8328 14.608C92.6795 16.0042 94.3985 16.7884 96.1414 16.4348L99.7424 15.7041C100.022 15.6474 100.305 15.6217 100.587 15.6263C100.577 15.5216 100.567 15.4167 100.56 15.3118ZM100.707 15.6301C100.697 15.5324 100.688 15.4345 100.68 15.3365C100.715 15.344 100.749 15.352 100.782 15.3605C100.796 15.453 100.811 15.5454 100.826 15.6375C100.786 15.6345 100.747 15.6319 100.707 15.6301ZM100.6 15.7398C100.322 15.7343 100.042 15.7589 99.7671 15.8149L96.1662 16.5455C94.4136 16.9011 92.6848 16.1394 91.7928 14.7647C91.7513 14.9439 91.7231 15.1261 91.7088 15.3097C92.5592 17.0261 94.6335 17.913 96.5757 17.3107L100.077 16.2247C100.263 16.1669 100.454 16.1234 100.645 16.0942C100.628 15.9763 100.613 15.8582 100.6 15.7398ZM100.762 16.0781C100.746 15.967 100.732 15.8556 100.719 15.7441C100.761 15.7463 100.804 15.7492 100.847 15.7528C100.866 15.8565 100.886 15.96 100.908 16.0631C100.86 16.0672 100.811 16.0722 100.762 16.0781ZM100.661 16.2063C100.477 16.2345 100.294 16.2765 100.114 16.3325L96.6119 17.4185C94.6827 18.0168 92.6265 17.1874 91.6981 15.5405C91.6958 15.6948 91.7032 15.8495 91.7206 16.0042C91.7465 16.0687 91.7744 16.133 91.8042 16.1969C92.7058 18.1298 95.0782 18.9991 97.1033 18.1385L100.466 16.7092C100.554 16.672 100.642 16.6382 100.732 16.6077C100.706 16.4743 100.682 16.3405 100.661 16.2063ZM100.845 16.571C100.821 16.4445 100.799 16.3175 100.78 16.1902C100.83 16.184 100.881 16.1788 100.933 16.1747C100.959 16.2911 100.987 16.4071 101.017 16.5226C100.96 16.5375 100.902 16.5535 100.845 16.571ZM100.755 16.7203C100.674 16.7483 100.594 16.779 100.515 16.8126L97.1509 18.242C95.1396 19.097 92.7946 18.2935 91.7988 16.448C91.8862 16.8109 92.0308 17.1677 92.236 17.507C93.3444 19.3394 95.7985 19.9672 97.7185 18.9092L100.859 17.1785C100.82 17.0265 100.786 16.8736 100.755 16.7203ZM100.966 17.1201C100.93 16.975 100.898 16.8294 100.868 16.6831C100.927 16.6647 100.986 16.6479 101.046 16.6325C101.081 16.7638 101.12 16.8945 101.16 17.0247C101.095 17.0546 101.03 17.0865 100.966 17.1201ZM100.995 17.2344C101.259 18.2504 101.671 19.2351 102.229 20.1577L104.437 23.8079C105.429 25.4476 107.499 26.1228 109.299 25.4885C107.883 25.6247 106.433 25.0595 105.537 23.8823L102.941 20.4724C102.163 19.4495 101.577 18.3205 101.195 17.1345C101.127 17.1656 101.06 17.199 100.995 17.2344ZM101.269 16.9768C101.323 16.9538 101.379 16.9321 101.434 16.9116C101.392 16.7997 101.351 16.6872 101.313 16.574C101.261 16.5832 101.211 16.5935 101.161 16.6047C101.195 16.7294 101.231 16.8534 101.269 16.9768ZM101.132 16.4949C101.18 16.4842 101.228 16.4744 101.276 16.4654C101.242 16.365 101.211 16.2642 101.18 16.163C101.138 16.1636 101.095 16.165 101.053 16.167C101.078 16.2767 101.103 16.386 101.132 16.4949ZM101.028 16.0549C101.068 16.0527 101.108 16.0513 101.148 16.0504C101.121 15.9602 101.097 15.8698 101.074 15.779C101.039 15.774 101.004 15.7694 100.97 15.7653C100.988 15.8621 101.007 15.9586 101.028 16.0549ZM100.949 15.6489C100.98 15.6524 101.012 15.6562 101.043 15.6604C101.023 15.5797 101.004 15.4988 100.986 15.4176C100.96 15.4095 100.934 15.4016 100.907 15.394C100.92 15.4791 100.934 15.5641 100.949 15.6489ZM100.889 15.271C100.913 15.2774 100.936 15.2838 100.959 15.2905C100.943 15.2188 100.929 15.1469 100.916 15.0748C100.898 15.0659 100.88 15.0572 100.86 15.0486C100.87 15.1229 100.88 15.197 100.889 15.271ZM100.846 14.9163C100.86 14.9228 100.876 14.9295 100.89 14.9362C100.879 14.8733 100.868 14.8103 100.859 14.7472C100.848 14.7401 100.838 14.7332 100.828 14.7263C100.834 14.7896 100.84 14.853 100.846 14.9163ZM100.817 14.5805C100.822 14.5845 100.829 14.5885 100.835 14.5925C100.827 14.5392 100.82 14.4857 100.813 14.4323C100.811 14.4301 100.808 14.4278 100.806 14.4256C100.809 14.4773 100.813 14.5289 100.817 14.5805ZM100.995 14.8474C101.003 14.8984 101.013 14.9494 101.021 15.0003C101.028 15.0036 101.035 15.0071 101.041 15.0105C101.028 14.9583 101.016 14.9059 101.002 14.8535C101 14.8514 100.998 14.8494 100.995 14.8474ZM101.082 15.162C101.071 15.1559 101.06 15.15 101.049 15.1441C101.061 15.2065 101.075 15.2688 101.088 15.331C101.103 15.3361 101.119 15.3412 101.134 15.3465C101.117 15.2851 101.099 15.2236 101.082 15.162ZM101.273 15.3971C101.258 15.3475 101.243 15.2978 101.229 15.248C101.232 15.2497 101.235 15.2515 101.237 15.2532C101.256 15.304 101.274 15.3547 101.293 15.4053C101.286 15.4025 101.28 15.3998 101.273 15.3971ZM101.175 15.4818C101.156 15.4748 101.137 15.4679 101.118 15.4612C101.134 15.5341 101.152 15.6068 101.17 15.6794C101.194 15.6834 101.218 15.6875 101.241 15.692C101.219 15.6222 101.196 15.5521 101.175 15.4818ZM101.375 15.7192C101.355 15.6587 101.335 15.5982 101.316 15.5374C101.327 15.5421 101.339 15.5469 101.35 15.5518C101.374 15.6115 101.398 15.6708 101.421 15.73C101.406 15.7263 101.391 15.7227 101.375 15.7192ZM101.282 15.8156C101.256 15.8101 101.228 15.8048 101.201 15.7999C101.223 15.8834 101.246 15.9665 101.271 16.0495C101.302 16.0497 101.335 16.0504 101.366 16.0515C101.338 15.9732 101.31 15.8945 101.282 15.8156ZM101.495 16.0577C101.468 15.9874 101.442 15.9167 101.418 15.8458C101.438 15.8505 101.458 15.8555 101.477 15.8605C101.506 15.9284 101.536 15.9959 101.566 16.0631C101.542 16.0611 101.519 16.0594 101.495 16.0577ZM101.409 16.1665C101.374 16.1649 101.34 16.1638 101.304 16.1632C101.333 16.2576 101.362 16.3516 101.394 16.4454C101.433 16.4393 101.473 16.4337 101.513 16.4288C101.477 16.3418 101.442 16.2544 101.409 16.1665ZM101.635 16.4157C101.601 16.3357 101.57 16.2553 101.539 16.1745C101.566 16.1767 101.594 16.1792 101.621 16.182C101.657 16.2577 101.693 16.3332 101.73 16.4082C101.699 16.4103 101.666 16.4128 101.635 16.4157ZM101.558 16.5375C101.516 16.5425 101.473 16.5481 101.431 16.5544C101.467 16.661 101.505 16.7671 101.545 16.8725C101.592 16.8571 101.639 16.8425 101.685 16.8288C101.641 16.7323 101.599 16.6352 101.558 16.5375ZM101.8 16.7971C101.76 16.7071 101.72 16.6165 101.68 16.5255C101.716 16.5225 101.75 16.5202 101.785 16.5183C101.828 16.6023 101.872 16.6858 101.917 16.7688C101.878 16.7777 101.84 16.7871 101.8 16.7971ZM101.849 16.9019C102.514 18.3157 103.484 19.5968 104.714 20.6538L107.996 23.4741C108.821 24.184 109.872 24.5061 110.9 24.4524C111.043 24.3003 111.172 24.1385 111.286 23.9689C110.512 23.9324 109.74 23.6876 109.066 23.2202L105.494 20.7428C104.013 19.7158 102.815 18.3875 101.974 16.8725C101.932 16.8815 101.891 16.8914 101.849 16.9019ZM102.095 16.8482C102.926 18.3362 104.106 19.6409 105.563 20.6512L109.136 23.1286C109.809 23.5958 110.584 23.834 111.359 23.8585C111.478 23.6672 111.58 23.4669 111.661 23.2602C111.152 23.1917 110.646 23.0304 110.173 22.7693L106.348 20.6619C104.64 19.7208 103.221 18.3994 102.198 16.8306C102.163 16.836 102.129 16.8418 102.095 16.8482ZM102.037 16.7436C102.068 16.7376 102.1 16.7319 102.131 16.7266C102.085 16.6557 102.041 16.5844 101.998 16.5125C101.97 16.5125 101.942 16.5127 101.915 16.5134C101.955 16.5905 101.995 16.6674 102.037 16.7436ZM101.858 16.4016C101.882 16.4008 101.906 16.4002 101.93 16.3998C101.893 16.336 101.856 16.2718 101.82 16.2073C101.8 16.2042 101.779 16.2013 101.759 16.1985C101.791 16.2665 101.824 16.3343 101.858 16.4016ZM101.702 16.0769C101.718 16.0788 101.734 16.0808 101.75 16.0829C101.72 16.0265 101.689 15.9696 101.659 15.9126C101.647 15.9089 101.635 15.9053 101.623 15.9016C101.649 15.9603 101.676 16.0187 101.702 16.0769ZM101.565 15.7665C101.572 15.7685 101.58 15.7705 101.586 15.7725C101.562 15.7242 101.538 15.6757 101.514 15.6271C101.511 15.6256 101.508 15.6242 101.505 15.6227C101.525 15.6708 101.544 15.7187 101.565 15.7665ZM101.821 15.9676C101.846 16.0136 101.871 16.0594 101.897 16.105C101.903 16.1063 101.911 16.1075 101.919 16.1088C101.889 16.0632 101.86 16.0173 101.831 15.9712C101.827 15.97 101.824 15.9688 101.821 15.9676ZM102.006 16.241C101.994 16.2385 101.981 16.236 101.969 16.2336C102.001 16.2894 102.034 16.3448 102.067 16.4C102.083 16.4003 102.1 16.4006 102.116 16.4012C102.079 16.3481 102.042 16.2947 102.006 16.241ZM102.263 16.4085C102.233 16.3657 102.203 16.3227 102.174 16.2795C102.177 16.2804 102.18 16.2813 102.183 16.2821C102.217 16.325 102.251 16.3677 102.286 16.4102C102.279 16.4095 102.271 16.4091 102.263 16.4085ZM102.198 16.518C102.178 16.5169 102.157 16.516 102.137 16.5152C102.177 16.5796 102.217 16.6437 102.258 16.7074C102.281 16.7041 102.305 16.7011 102.329 16.6984C102.284 16.6386 102.24 16.5785 102.198 16.518ZM102.409 16.8037C102.381 16.8065 102.354 16.8095 102.326 16.8128C103.338 18.3475 104.733 19.6405 106.408 20.5638L110.232 22.6713C110.7 22.9291 111.2 23.0868 111.703 23.1513C111.788 22.9174 111.85 22.6759 111.886 22.4305C111.663 22.3761 111.441 22.3029 111.223 22.2104L107.19 20.496C105.268 19.6794 103.625 18.3994 102.409 16.8037ZM112.002 22.4571C111.966 22.6978 111.906 22.9349 111.824 23.165C112.057 23.1879 112.291 23.1912 112.522 23.1753C112.62 22.9732 112.699 22.7638 112.759 22.55C112.507 22.5415 112.254 22.511 112.002 22.4571ZM112.018 22.3443C112.274 22.3998 112.532 22.4305 112.788 22.4375C112.847 22.1964 112.881 21.9502 112.891 21.7025C112.663 21.6705 112.435 21.62 112.208 21.5497L112.024 21.4929C112.055 21.7776 112.052 22.0632 112.018 22.3443ZM112.462 23.2924C112.237 23.3043 112.01 23.2985 111.783 23.2747C111.704 23.4765 111.607 23.6726 111.495 23.8605C111.708 23.8604 111.921 23.844 112.131 23.8117C112.257 23.6462 112.367 23.4725 112.462 23.2924ZM112.029 23.9404C111.829 23.9654 111.626 23.9764 111.424 23.9733C111.319 24.1361 111.2 24.2923 111.068 24.4403C111.26 24.4225 111.45 24.3918 111.638 24.3481C111.78 24.22 111.911 24.0836 112.029 23.9404ZM103.781 17.0817C105.686 18.273 107.927 18.9214 110.239 18.9214H110.75L110.508 18.5213C108.155 18.6863 105.816 18.179 103.781 17.0817ZM104.242 17.1907C106.142 18.1246 108.285 18.5534 110.442 18.4123L110.235 18.0689C108.188 18.2753 106.123 17.9706 104.242 17.1907ZM110.363 18.0553L110.574 18.403C110.672 18.3955 110.77 18.3868 110.868 18.3769L111.377 18.326L111.092 17.9523C110.85 17.9939 110.606 18.0282 110.363 18.0553ZM111.015 17.8504C110.777 17.8901 110.538 17.9228 110.299 17.9484L110.115 17.6448C110.334 17.6124 110.553 17.574 110.77 17.5297L111.015 17.8504ZM111.221 17.9294L111.513 18.3123L112.45 18.2183L112.026 17.7685L111.46 17.8835C111.38 17.8995 111.3 17.9148 111.221 17.9294ZM111.935 17.6714L111.435 17.7726C111.338 17.7923 111.241 17.8107 111.144 17.828L110.897 17.5034C111.136 17.4521 111.374 17.3937 111.611 17.3281L111.935 17.6714ZM112.16 17.7413L112.596 18.2036L113.692 18.0936C113.591 17.9845 113.482 17.8798 113.366 17.78L113.1 17.5506L112.16 17.7413ZM112.991 17.457L112.068 17.6441L111.737 17.2925C111.814 17.2701 111.891 17.2469 111.968 17.223L112.52 17.0521L112.991 17.457ZM113.243 17.5215L113.446 17.6959C113.587 17.8169 113.717 17.945 113.836 18.0792L114.883 17.9742C114.723 17.7344 114.535 17.5091 114.316 17.3038L113.243 17.5215ZM114.212 17.2092L113.134 17.4279L112.65 17.0116L113.563 16.7284L113.854 16.9298C113.98 17.0175 114.1 17.1108 114.212 17.2092ZM114.455 17.2758C114.67 17.4865 114.857 17.7167 115.015 17.961L115.26 17.9364C115.485 17.9137 115.704 17.8737 115.916 17.8178C115.796 17.5551 115.644 17.3043 115.463 17.0711L114.455 17.2758ZM115.383 16.9715L114.354 17.1805C114.22 17.059 114.077 16.9445 113.923 16.8382L113.702 16.6851L114.746 16.3615C114.985 16.5439 115.199 16.749 115.383 16.9715ZM115.59 17.0453C115.765 17.2775 115.913 17.526 116.03 17.7858C116.281 17.7117 116.52 17.6153 116.746 17.4989C116.671 17.2619 116.572 17.0322 116.451 16.8132C116.237 16.8945 116.012 16.9598 115.779 17.0071L115.59 17.0453ZM116.393 16.7131C116.189 16.7897 115.976 16.8514 115.754 16.8964L115.513 16.9454C115.329 16.7181 115.118 16.5079 114.88 16.3199L115.861 16.0155C116.067 16.2295 116.245 16.4637 116.393 16.7131ZM116.56 16.7696C116.68 16.9849 116.777 17.2102 116.852 17.4423C117.055 17.3301 117.246 17.2015 117.423 17.0588C117.379 16.8405 117.313 16.6268 117.23 16.4205C117.02 16.555 116.798 16.6722 116.56 16.7696ZM117.184 16.313C116.973 16.4512 116.745 16.5711 116.504 16.6697C116.359 16.4231 116.185 16.1906 115.985 15.9772L116.168 15.9205C116.395 15.8502 116.611 15.7628 116.816 15.6605C116.96 15.8662 117.083 16.0848 117.184 16.313ZM117.33 16.3539C117.413 16.5544 117.479 16.7615 117.526 16.9734C117.684 16.8368 117.832 16.6885 117.965 16.5303C117.942 16.327 117.903 16.1273 117.847 15.9328C117.688 16.0857 117.515 16.2268 117.33 16.3539ZM117.809 15.8079C117.648 15.9675 117.473 16.1144 117.283 16.2462C117.183 16.0228 117.061 15.8085 116.92 15.6062C117.144 15.4857 117.354 15.3469 117.547 15.1923C117.653 15.3893 117.74 15.5952 117.809 15.8079ZM117.49 15.09C117.365 14.8731 117.218 14.668 117.052 14.4778C116.86 14.6001 116.654 14.7085 116.436 14.8012L116.26 14.8756C116.482 15.0679 116.68 15.2818 116.853 15.5125C117.081 15.3904 117.295 15.2485 117.49 15.09ZM116.747 15.5667C116.573 15.3335 116.37 15.1183 116.142 14.9261L115.2 15.3265C115.457 15.4899 115.689 15.6779 115.897 15.8856L116.131 15.8129C116.347 15.746 116.553 15.6634 116.747 15.5667ZM115.771 15.9245C115.562 15.7216 115.329 15.5389 115.071 15.3815L114.068 15.8074L114.304 15.9376C114.469 16.028 114.623 16.1275 114.77 16.2352L115.771 15.9245ZM114.632 16.2778C114.509 16.1912 114.38 16.1102 114.245 16.0356L113.935 15.8644L113.057 16.2372L113.584 16.6028L114.632 16.2778ZM113.444 16.6461L112.932 16.2904L112.402 16.5155C112.328 16.5469 112.254 16.5775 112.18 16.6075L112.548 16.9242L113.444 16.6461ZM112.418 16.9645L112.059 16.6555C111.83 16.7444 111.6 16.8263 111.367 16.9011L111.649 17.1994C111.743 17.1725 111.838 17.1445 111.932 17.1154L112.418 16.9645ZM111.522 17.2345L111.244 16.94C111.033 17.0057 110.82 17.0657 110.605 17.1199L110.82 17.4035C111.056 17.3542 111.29 17.2978 111.522 17.2345ZM110.694 17.4294L110.481 17.1504C110.286 17.1975 110.09 17.24 109.893 17.2775L110.051 17.5395C110.266 17.5085 110.48 17.4719 110.694 17.4294ZM109.925 17.5572L109.77 17.3004C108.26 17.5725 106.706 17.5634 105.196 17.2709C106.735 17.6706 108.343 17.7685 109.925 17.5572ZM105.673 17.2389C107.011 17.4464 108.376 17.4316 109.707 17.1965L109.575 16.9786C108.301 17.2695 106.983 17.3585 105.673 17.2389ZM109.695 16.9506L109.83 17.174C110.023 17.1378 110.216 17.0971 110.406 17.0516L110.224 16.8118C110.049 16.862 109.872 16.9083 109.695 16.9506ZM110.15 16.7147C109.979 16.7631 109.806 16.8077 109.633 16.8485L109.283 16.2701C108.881 15.606 108.724 14.8377 108.827 14.0857C108.882 14.7361 109.123 15.3655 109.532 15.9022L110.15 16.7147ZM110.344 16.7768L110.53 17.0215C110.74 16.9693 110.95 16.9114 111.158 16.8478L110.916 16.5915C110.726 16.658 110.536 16.7197 110.344 16.7768ZM110.83 16.5008C110.645 16.5651 110.459 16.6248 110.27 16.68L109.627 15.8356C109.156 15.2151 108.914 14.4666 108.934 13.7083C109.06 14.3497 109.369 14.9518 109.834 15.4448L110.83 16.5008ZM111.035 16.5489L111.28 16.8094C111.509 16.7368 111.736 16.6575 111.96 16.5713L111.652 16.3061C111.448 16.3926 111.242 16.4736 111.035 16.5489ZM111.555 16.2231C111.356 16.3071 111.154 16.3855 110.95 16.4585L109.922 15.3691C109.387 14.8016 109.066 14.0852 109 13.3328L109.001 13.3283C109.199 13.9514 109.57 14.5172 110.085 14.9597L111.555 16.2231ZM111.77 16.2551L112.082 16.5237C112.173 16.4876 112.263 16.4504 112.354 16.412L112.82 16.2135L112.429 15.9421C112.212 16.0532 111.992 16.1575 111.77 16.2551ZM112.322 15.8681C112.109 15.9762 111.893 16.0776 111.674 16.1725L110.164 14.8756C109.61 14.3991 109.227 13.7752 109.058 13.0915C109.062 13.0731 109.066 13.0547 109.07 13.0364C109.337 13.5955 109.752 14.085 110.281 14.4524L112.322 15.8681ZM112.545 15.8822L112.946 16.1604L113.807 15.7944L113.259 15.4917L112.756 15.7685C112.686 15.8072 112.616 15.845 112.545 15.8822ZM113.14 15.4264L112.697 15.6705C112.611 15.7176 112.525 15.7636 112.439 15.8085L110.351 14.3608C109.792 13.9727 109.364 13.4439 109.112 12.8405C109.118 12.8095 109.124 12.7785 109.13 12.7475C109.452 13.2301 109.893 13.6369 110.421 13.9283L113.14 15.4264ZM113.377 15.4264L113.941 15.7375L114.948 15.3095C114.817 15.2355 114.68 15.1679 114.537 15.1073L114.209 14.9679L113.377 15.4264ZM114.075 14.911L113.259 15.361L110.48 13.8302C109.93 13.5266 109.477 13.0935 109.161 12.5787C109.168 12.5374 109.176 12.496 109.182 12.4546C109.541 12.853 109.991 13.1752 110.503 13.3929L114.075 14.911ZM114.336 14.8979L114.585 15.0038C114.758 15.0774 114.923 15.1609 115.08 15.2534L116.042 14.8445C115.813 14.6635 115.56 14.5052 115.286 14.3743L114.336 14.8979ZM115.156 14.3151L114.201 14.841L110.551 13.2895C110.022 13.0649 109.563 12.7257 109.206 12.3048C109.214 12.2542 109.22 12.2035 109.227 12.1529C109.603 12.4636 110.043 12.703 110.525 12.8525L114.725 14.1549C114.874 14.201 115.018 14.2545 115.156 14.3151ZM115.408 14.3069C115.681 14.4437 115.934 14.6075 116.162 14.7933L116.388 14.6977C116.595 14.6096 116.79 14.5069 116.974 14.3914C116.774 14.1769 116.549 13.9831 116.301 13.8146L115.408 14.3069ZM116.193 13.7435L115.281 14.246C115.116 14.1697 114.941 14.1031 114.761 14.0472L110.562 12.7447C110.069 12.592 109.621 12.3422 109.245 12.0165C109.252 11.9571 109.26 11.8975 109.265 11.838C109.637 12.0619 110.051 12.2238 110.489 12.3127L114.808 13.1891C115.318 13.2925 115.784 13.4841 116.193 13.7435ZM109.154 11.7679C109.142 11.7608 109.132 11.7537 109.121 11.7465C109.12 11.7975 109.119 11.8485 109.116 11.8995C109.123 11.9062 109.13 11.9128 109.138 11.9195C109.143 11.8689 109.148 11.8185 109.154 11.7679ZM109.12 12.0606C109.117 12.0574 109.113 12.0541 109.109 12.0508C109.107 12.0926 109.104 12.1345 109.101 12.1763L109.104 12.1795C109.11 12.1399 109.115 12.1003 109.12 12.0606ZM109.001 11.785C109.002 11.7451 109.003 11.7053 109.004 11.6655C109 11.6625 108.997 11.6597 108.992 11.6568C108.995 11.6985 108.997 11.7404 108.999 11.7822L109.001 11.785ZM108.182 10.3737C108.167 10.3367 108.151 10.2999 108.134 10.2631C108.129 10.2621 108.124 10.261 108.12 10.2599C108.14 10.2973 108.16 10.3347 108.18 10.3723L108.182 10.3737ZM108.047 10.1255C108.057 10.128 108.065 10.1304 108.075 10.1326C108.054 10.0862 108.032 10.0398 108.01 9.99364C107.997 9.99273 107.984 9.99173 107.971 9.99064C107.997 10.0355 108.021 10.0805 108.047 10.1255ZM107.827 9.97627C107.847 10.0111 107.867 10.0461 107.887 10.0812L107.884 10.0801C107.86 10.0448 107.837 10.0095 107.813 9.97455C107.818 9.97509 107.822 9.97573 107.827 9.97627ZM107.901 9.87045C107.919 9.87227 107.936 9.87391 107.953 9.87536C107.925 9.82009 107.898 9.765 107.869 9.71018C107.849 9.71182 107.828 9.71327 107.808 9.71455C107.84 9.76627 107.87 9.81827 107.901 9.87045ZM107.674 9.72064C107.701 9.76436 107.728 9.80836 107.754 9.85245C107.744 9.85109 107.735 9.84964 107.725 9.84818C107.696 9.80582 107.665 9.76355 107.635 9.72155C107.648 9.72136 107.661 9.721 107.674 9.72064ZM107.74 9.60482C107.764 9.60373 107.788 9.60236 107.812 9.60073C107.779 9.53682 107.744 9.47318 107.709 9.40991C107.681 9.41636 107.655 9.42245 107.627 9.42836C107.665 9.48682 107.702 9.54564 107.74 9.60482ZM107.503 9.45273C107.538 9.50445 107.571 9.55645 107.604 9.60882C107.587 9.609 107.57 9.60909 107.553 9.609C107.516 9.56009 107.48 9.51155 107.442 9.46327C107.462 9.45991 107.483 9.45645 107.503 9.45273ZM107.559 9.32645C107.59 9.32027 107.62 9.31373 107.651 9.30673C106.623 7.49417 105.083 5.97045 103.182 4.92289L99.9938 3.16577C99.5262 2.90783 99.0262 2.7501 98.5214 2.68562C98.4366 2.91942 98.3747 3.16074 98.3385 3.40599C98.5624 3.46049 98.7843 3.53368 99.0024 3.62638L102.365 5.05575C104.514 5.9689 106.314 7.4613 107.559 9.32645ZM98.3233 3.51921C98.5357 3.57176 98.7471 3.64173 98.9538 3.72983L102.318 5.1592C104.43 6.05708 106.202 7.52065 107.435 9.34964C107.411 9.35364 107.387 9.35736 107.363 9.36091C105.902 7.50138 103.867 6.10084 101.52 5.37288L98.3233 4.38161C98.289 4.09336 98.289 3.80404 98.3233 3.51921ZM98.2224 3.37948C98.2595 3.13886 98.3186 2.90195 98.4014 2.67198C98.1681 2.64904 97.9338 2.64586 97.7024 2.66175C97.6052 2.86379 97.5262 3.07301 97.4662 3.28677C97.7185 3.29512 97.9709 3.32565 98.2224 3.37948ZM97.4366 3.3992C97.6928 3.40614 97.9509 3.43674 98.2071 3.49225C98.1728 3.77326 98.17 4.05862 98.2005 4.34325L98.0185 4.28692C97.7909 4.21646 97.5624 4.16581 97.3338 4.13394C97.3433 3.88637 97.3776 3.64023 97.4366 3.3992ZM97.3443 3.28445C97.4005 3.07587 97.4757 2.87137 97.5671 2.67326C97.3547 2.69474 97.1452 2.73231 96.9395 2.7854C96.8319 2.96253 96.7414 3.14632 96.6662 3.33481C96.889 3.30043 97.1166 3.28336 97.3443 3.28445ZM96.6205 3.45716C96.849 3.41827 97.0814 3.39813 97.3157 3.39767C97.2595 3.63458 97.2252 3.87617 97.2157 4.11914C96.9595 4.0907 96.7052 4.08558 96.4538 4.10241C96.489 3.88385 96.5452 3.66789 96.6205 3.45716ZM96.4366 4.21716C96.4043 4.46277 96.3966 4.71104 96.4147 4.95824C96.6452 4.96712 96.8786 4.99465 97.1119 5.04205L97.2986 5.07995C97.2376 4.79985 97.209 4.51575 97.2128 4.23284C96.9519 4.20319 96.6919 4.19849 96.4366 4.21716ZM97.3309 4.24805C97.329 4.5347 97.3605 4.8225 97.4262 5.10575L98.4347 5.31043C98.3271 5.03411 98.2547 4.75128 98.2147 4.46702L97.9814 4.39461C97.7662 4.32765 97.5481 4.27911 97.3309 4.24805ZM98.3405 4.50596C98.3843 4.78697 98.4614 5.0662 98.5728 5.33845L100.713 5.77271C103.234 6.28404 105.496 7.5584 107.177 9.38382C107.194 9.38209 107.211 9.38036 107.228 9.37836C105.784 7.56253 103.785 6.19467 101.483 5.48057L98.3405 4.50596ZM107.31 9.48264C107.297 9.48436 107.284 9.486 107.271 9.48755C107.306 9.52627 107.34 9.56518 107.375 9.60445C107.384 9.60491 107.395 9.60536 107.404 9.60573C107.373 9.56455 107.341 9.52345 107.31 9.48264ZM107.49 9.72164C107.485 9.72155 107.48 9.72145 107.476 9.72127C107.503 9.75382 107.531 9.78645 107.558 9.81927L107.561 9.82C107.539 9.78709 107.515 9.75427 107.49 9.72164ZM107.209 9.59264C107.182 9.56227 107.155 9.53209 107.127 9.502C107.122 9.50236 107.118 9.50282 107.113 9.50318C107.143 9.53273 107.175 9.56236 107.205 9.59227L107.209 9.59264ZM107 9.397C107.009 9.39645 107.02 9.39591 107.029 9.39536C105.371 7.62194 103.155 6.38379 100.688 5.88346L98.6281 5.46534C98.6881 5.59917 98.7576 5.73109 98.8366 5.86046L99.0157 6.15668L99.9547 6.25091C102.62 6.51822 105.097 7.63385 107 9.397ZM99.089 6.27789L99.9424 6.36352C102.541 6.62429 104.96 7.70044 106.834 9.40182H106.829C104.745 7.7594 102.128 6.83665 99.4062 6.80313L99.089 6.27789ZM98.87 6.14204L98.7338 5.91707C98.6385 5.76022 98.5566 5.59972 98.4862 5.43665L97.4566 5.22772C97.5309 5.50289 97.6376 5.77295 97.7786 6.03259L98.87 6.14204ZM97.8471 6.15332L98.9433 6.26326L99.269 6.80219C99.2633 6.80218 99.2576 6.80217 99.2528 6.80217L98.3081 6.80218L98.0976 6.52538C98.0052 6.40455 97.9224 6.28032 97.8471 6.15332ZM97.6385 6.0185C97.5014 5.75436 97.3976 5.48031 97.3271 5.20152L97.0871 5.15282C96.8652 5.10776 96.6433 5.08119 96.4243 5.07199C96.4538 5.35732 96.5157 5.64045 96.6128 5.91562L97.6385 6.0185ZM96.6566 6.03386L97.7033 6.13889C97.7909 6.29405 97.89 6.44543 98.0014 6.59194L98.1614 6.80218H97.0652C96.8966 6.55804 96.7605 6.30014 96.6566 6.03386ZM97.1462 6.91541C97.2347 7.03416 97.3309 7.14933 97.4357 7.26027L97.6757 7.51458L98.6147 7.42036C98.6205 7.41983 98.6252 7.4193 98.6309 7.41877L98.2481 6.91541H97.1462ZM98.3947 6.91541L98.7681 7.40597C99.0481 7.38138 99.3271 7.36633 99.6062 7.36066L99.3376 6.9157C99.309 6.91551 99.2805 6.91541 99.2528 6.91541H98.3947ZM99.4757 6.91742L99.7424 7.35865C102.134 7.33621 104.478 8.0024 106.467 9.27009C104.471 7.79485 102.021 6.96334 99.4757 6.91742ZM106.058 9.15382C104.183 8.04685 102.019 7.46271 99.8109 7.47143L100.045 7.85958C102.128 7.7797 104.203 8.22364 106.058 9.15382ZM99.9119 7.86542L99.6747 7.47272C99.3995 7.47684 99.1243 7.49013 98.849 7.51275L99.1633 7.92488C99.4119 7.89748 99.6624 7.87767 99.9119 7.86542ZM99.2433 8.03024C99.4881 8.00467 99.7338 7.9865 99.9785 7.97567L100.186 8.31838C99.9633 8.33722 99.7405 8.36207 99.5195 8.39295L99.2433 8.03024ZM99.0281 7.94044L98.7119 7.52481C98.6833 7.52744 98.6557 7.53015 98.6271 7.53297L97.7738 7.61859L98.1995 8.06919C98.4747 8.01682 98.7509 7.97393 99.0281 7.94044ZM98.2919 8.16726C98.5633 8.1173 98.8347 8.07662 99.1081 8.04512L99.3871 8.41207C99.1405 8.44918 98.8938 8.49379 98.649 8.54593L98.2919 8.16726ZM98.7405 8.64271L99.0547 8.97588C99.2719 8.92305 99.49 8.87616 99.709 8.83521L99.4652 8.51507C99.2224 8.55031 98.9805 8.59284 98.7405 8.64271ZM99.5976 8.49657L99.8376 8.81186C100.035 8.77727 100.232 8.74745 100.43 8.72241L100.251 8.42664C100.033 8.44412 99.8157 8.46742 99.5976 8.49657ZM100.382 8.41685L100.558 8.70694C102.113 8.52658 103.699 8.64003 105.221 9.0496C103.668 8.51689 102.019 8.30326 100.382 8.41685ZM104.798 9.06024C103.427 8.73975 102.013 8.65811 100.622 8.81362L100.677 8.90388C100.708 8.95567 100.739 9.00807 100.767 9.06104C102.093 8.8432 103.457 8.84048 104.798 9.06024ZM100.644 9.08175C100.621 9.04097 100.599 9.00055 100.575 8.9605L100.495 8.8286C100.3 8.85231 100.108 8.88062 99.9157 8.91353L100.121 9.18454C100.295 9.14654 100.469 9.11227 100.644 9.08175ZM100.198 9.28418C100.364 9.24836 100.532 9.21609 100.7 9.18718C101.053 9.88427 101.151 10.6751 100.979 11.4332C100.969 10.6955 100.721 9.97318 100.261 9.36845L100.198 9.28418ZM99.9966 9.21264L99.7862 8.93635C99.5709 8.97549 99.3566 9.02039 99.1443 9.07105L99.4176 9.36073C99.609 9.30664 99.8024 9.25736 99.9966 9.21264ZM99.5052 9.45409C99.6928 9.40218 99.8824 9.35473 100.072 9.31191L100.165 9.435C100.699 10.1348 100.937 10.9975 100.839 11.8534C100.749 11.1209 100.423 10.4273 99.8995 9.87182L99.5052 9.45409ZM99.3795 9.48964C99.17 9.55 98.9624 9.616 98.7557 9.68764L99.5947 10.4085C100.177 10.9085 100.576 11.5655 100.745 12.2848C100.749 11.4241 100.418 10.5903 99.8109 9.94764L99.3795 9.48964ZM103.935 16.8384C105.78 17.2806 107.692 17.2866 109.513 16.8763L109.18 16.3267C108.682 15.5035 108.548 14.5251 108.805 13.6068C108.812 13.5848 108.818 13.5627 108.824 13.5407C108.832 13.4386 108.843 13.3365 108.86 13.2346C108.864 13.2119 108.868 13.1893 108.872 13.1665C108.868 13.0644 108.869 12.9617 108.875 12.8588C108.876 12.8356 108.878 12.8124 108.879 12.7891C108.863 12.6882 108.854 12.5863 108.848 12.4836C108.846 12.4607 108.845 12.4378 108.844 12.4149C108.819 12.3156 108.797 12.2151 108.78 12.1133C108.776 12.0906 108.772 12.0679 108.768 12.0452C108.732 11.9492 108.7 11.8513 108.672 11.7518C108.665 11.7294 108.659 11.707 108.653 11.6846C108.606 11.5929 108.563 11.4989 108.524 11.403C108.516 11.3813 108.507 11.3597 108.499 11.3381C108.441 11.2515 108.389 11.1624 108.34 11.0708C108.329 11.0504 108.319 11.03 108.307 11.0097C108.241 10.929 108.179 10.8454 108.12 10.7589C108.107 10.7399 108.094 10.721 108.081 10.7021C108.006 10.6282 107.935 10.5511 107.867 10.4707C107.852 10.4532 107.837 10.4356 107.822 10.4182C107.74 10.3521 107.66 10.2825 107.583 10.2095C107.567 10.1932 107.55 10.177 107.533 10.1608C107.444 10.1035 107.358 10.0425 107.274 9.97773C107.255 9.96309 107.236 9.94845 107.217 9.934C107.122 9.886 107.03 9.834 106.94 9.77809C106.92 9.76573 106.9 9.75336 106.88 9.74109C106.78 9.70255 106.682 9.65991 106.586 9.613C106.565 9.60264 106.543 9.59236 106.522 9.58218C106.42 9.55382 106.317 9.52118 106.216 9.48418C106.194 9.47609 106.172 9.468 106.149 9.46C106.043 9.44209 105.939 9.41973 105.834 9.393C104.183 8.97092 102.474 8.90043 100.821 9.167C101.199 9.93109 101.283 10.8015 101.052 11.6237C100.998 11.8181 100.949 12.0134 100.905 12.2093C100.884 12.35 100.866 12.4908 100.851 12.6318C100.845 12.7734 100.842 12.9148 100.842 13.056C100.853 13.199 100.866 13.3416 100.881 13.4837C100.907 13.624 100.936 13.7635 100.966 13.9024C101.007 14.0389 101.051 14.1745 101.097 14.309C101.152 14.4413 101.21 14.5723 101.271 14.702C101.341 14.8288 101.414 14.9541 101.489 15.0777C101.573 15.1966 101.659 15.3138 101.746 15.4293C101.842 15.5386 101.94 15.646 102.04 15.7515C102.146 15.85 102.255 15.9464 102.364 16.0406C102.481 16.1282 102.6 16.2134 102.72 16.2963C102.847 16.3729 102.977 16.447 103.107 16.5186C103.24 16.5813 103.376 16.6414 103.512 16.699C103.652 16.7481 103.793 16.7945 103.935 16.8384ZM105.644 9.08166C103.92 8.2872 102.02 7.90698 100.113 7.97049L100.317 8.30801C102.123 8.17424 103.947 8.43569 105.644 9.08166ZM104.72 17.2555C106.447 17.896 108.315 18.1405 110.169 17.9615L109.989 17.6628C108.223 17.9058 106.421 17.7666 104.72 17.2555ZM96.5309 3.3579C96.3319 3.39505 96.1366 3.44604 95.9462 3.51024C96.0309 3.34657 96.129 3.1873 96.2405 3.03379C96.4147 2.95384 96.5938 2.88604 96.7766 2.83076C96.6805 3.00147 96.5986 3.17772 96.5309 3.3579ZM117.942 15.8382C118.08 15.6965 118.207 15.5457 118.322 15.3869C118.354 15.567 118.373 15.7508 118.378 15.9374C118.286 16.0995 118.182 16.255 118.068 16.4025C118.041 16.2106 117.999 16.022 117.942 15.8382ZM91.579 15.578C91.5794 15.4955 91.5825 15.4132 91.5883 15.3311C91.5517 15.2557 91.5173 15.1788 91.4854 15.1005C91.5057 15.26 91.5368 15.4195 91.579 15.578ZM91.4563 14.6512C91.4748 14.7179 91.4955 14.7845 91.5181 14.851C91.5466 14.935 91.578 15.0173 91.6119 15.098C91.6331 14.9383 91.6646 14.78 91.7059 14.6242C91.6234 14.4844 91.5493 14.3387 91.4845 14.1877C91.4653 14.3409 91.4558 14.4957 91.4563 14.6512ZM91.5205 13.9592C91.5851 14.1355 91.6625 14.3048 91.7512 14.4667C91.8088 14.2819 91.8805 14.1011 91.9658 13.9258C91.853 13.7675 91.7518 13.6005 91.6636 13.4261C91.6026 13.6 91.5548 13.7782 91.5205 13.9592ZM91.5925 13.2776C91.5344 13.4283 91.4859 13.5824 91.4473 13.739C91.4224 13.6554 91.4003 13.5703 91.381 13.484C91.3658 13.4155 91.3525 13.3472 91.3413 13.2789C91.3579 13.1245 91.3843 12.9718 91.4201 12.8215C91.468 12.9782 91.5257 13.1304 91.5925 13.2776ZM91.7205 13.2742C91.8078 13.4607 91.9102 13.639 92.0259 13.8076C92.1279 13.6152 92.2466 13.4301 92.3818 13.2545C92.2382 13.0883 92.1085 12.9106 91.9946 12.7233C91.888 12.8998 91.7964 13.0841 91.7205 13.2742ZM91.9275 12.6086C91.8234 12.7745 91.7323 12.9474 91.6547 13.1255C91.5842 12.9557 91.5258 12.7795 91.4807 12.5979C91.5347 12.4211 91.602 12.2485 91.6816 12.0815C91.7503 12.2638 91.8326 12.4399 91.9275 12.6086ZM92.0645 12.6117C92.1783 12.8061 92.3092 12.99 92.4554 13.1616C92.6105 12.9722 92.7852 12.7947 92.9786 12.6324C92.7961 12.4625 92.6305 12.2771 92.4837 12.0785C92.3272 12.2451 92.1871 12.4236 92.0645 12.6117ZM92.4148 11.9824C92.2612 12.1435 92.1226 12.3158 92.0002 12.4971C91.9035 12.3178 91.8212 12.1304 91.7548 11.9361C91.8511 11.7545 91.9625 11.5804 92.0879 11.4153C92.1806 11.6131 92.2902 11.8026 92.4148 11.9824ZM92.5661 11.9935C92.7143 12.1966 92.8827 12.3859 93.0691 12.5585C93.2467 12.4178 93.4391 12.2895 93.6458 12.1756L93.8121 12.0839C93.5702 11.9148 93.3499 11.7219 93.1539 11.5095C92.9394 11.6538 92.743 11.8163 92.5661 11.9935ZM93.0765 11.4231C92.8664 11.5653 92.6732 11.7244 92.4983 11.8974C92.3716 11.712 92.2615 11.516 92.1697 11.3114C92.3123 11.1365 92.471 10.9729 92.6449 10.8229C92.7691 11.035 92.9136 11.236 93.0765 11.4231ZM93.2526 11.4452C93.452 11.6596 93.6771 11.8535 93.9246 12.0219L94.8178 11.5296C94.5445 11.3928 94.2921 11.2291 94.0633 11.0432L93.8383 11.1389C93.6311 11.2269 93.4357 11.3296 93.2526 11.4452ZM93.9653 10.9609L93.79 11.0355C93.5721 11.1281 93.3666 11.2365 93.1746 11.3586C93.0082 11.1685 92.8613 10.9635 92.7362 10.7465C92.9316 10.588 93.1446 10.4461 93.3737 10.324C93.5453 10.5547 93.7433 10.7686 93.9653 10.9609ZM94.184 10.992C94.4133 11.173 94.6662 11.3314 94.9402 11.4623L95.89 10.9388L95.6405 10.8329C95.4681 10.7594 95.3024 10.6758 95.1456 10.5833L94.184 10.992ZM95.0261 10.5101L94.0841 10.9105C93.8563 10.7183 93.6537 10.503 93.4789 10.2698C93.6736 10.1732 93.8793 10.0905 94.0949 10.0236L94.329 9.951C94.5362 10.1587 94.7692 10.3467 95.0261 10.5101ZM95.2776 10.5272C95.409 10.6012 95.5462 10.6688 95.689 10.7295L96.0166 10.8688L96.8338 10.4185C96.8386 10.4158 96.8433 10.4132 96.8481 10.4105L96.2843 10.0995L95.2776 10.5272ZM96.1566 10.0295L95.1551 10.4553C94.897 10.2977 94.6628 10.115 94.4546 9.91209L95.4557 9.60164C95.6014 9.70927 95.7566 9.80891 95.9214 9.89936L96.1566 10.0295ZM96.4176 10.0425L96.9681 10.3457C97.2128 10.2146 97.4624 10.0924 97.7147 9.97882L97.2795 9.67673C97.2538 9.68754 97.2271 9.69845 97.2014 9.70955L96.4176 10.0425ZM97.1681 9.59973C97.1633 9.60182 97.1586 9.60391 97.1528 9.60609L96.2909 9.97254L95.9805 9.80136C95.8452 9.72673 95.7157 9.64573 95.5928 9.559L96.6405 9.234L97.1681 9.59973ZM96.5224 9.15173L96.3014 8.99884C96.1481 8.89245 96.0052 8.77789 95.8719 8.65622L94.8419 8.86514C95.0268 9.08774 95.2395 9.29282 95.4795 9.47527L96.5224 9.15173ZM95.3452 9.51691C95.1072 9.32882 94.8961 9.11864 94.7127 8.89134L94.4724 8.94012C94.2505 8.98514 94.0368 9.04685 93.8325 9.12355C93.9807 9.37291 94.1587 9.60718 94.3642 9.82109L95.3452 9.51691ZM94.2406 9.85945C94.0408 9.646 93.8673 9.41355 93.7219 9.167C93.4808 9.26554 93.2534 9.38536 93.0419 9.52355C93.1425 9.75173 93.2661 9.97027 93.4108 10.176C93.6152 10.0736 93.8313 9.98636 94.0583 9.91591L94.2406 9.85945ZM93.3061 10.2303C93.1646 10.028 93.043 9.81373 92.9427 9.59036C92.7534 9.72218 92.5776 9.869 92.4167 10.0286C92.4856 10.2414 92.5736 10.4473 92.6793 10.6442C92.8723 10.4896 93.0817 10.3507 93.3061 10.2303ZM92.5869 10.7204C92.4827 10.5293 92.3945 10.3298 92.324 10.1238C92.1811 10.2755 92.0513 10.4376 91.9357 10.6085C91.9805 10.8084 92.0418 11.003 92.1183 11.1909C92.26 11.0229 92.4165 10.8654 92.5869 10.7204ZM92.0338 11.2946C91.9579 11.1173 91.8953 10.9339 91.8469 10.7458C91.7494 10.9041 91.6636 11.0692 91.5905 11.2397C91.6154 11.4248 91.6542 11.6058 91.7058 11.7816C91.8024 11.6121 91.912 11.4493 92.0338 11.2946ZM91.6271 11.9267C91.5768 11.7736 91.5362 11.6165 91.5056 11.4561C91.4535 11.6023 91.4105 11.7518 91.3771 11.9041C91.3807 11.9727 91.3865 12.0416 91.3941 12.1108C91.4037 12.1987 91.4165 12.2857 91.4321 12.3715C91.4876 12.2195 91.5527 12.071 91.6271 11.9267ZM91.3583 12.5949C91.3388 12.5141 91.3221 12.4323 91.3079 12.3495C91.2931 12.5092 91.2888 12.671 91.2956 12.834C91.3139 12.7535 91.3347 12.6738 91.3583 12.5949ZM91.3802 11.457C91.4072 11.3785 91.4368 11.301 91.4689 11.2245C91.4586 11.1419 91.4507 11.0585 91.4457 10.9745C91.4134 11.1325 91.3913 11.2935 91.3802 11.457ZM91.5633 10.5385C91.5595 10.6074 91.5575 10.6767 91.5575 10.7465C91.5575 10.8349 91.5606 10.9227 91.5668 11.0097C91.6388 10.8639 91.7199 10.7225 91.8097 10.5865C91.7765 10.429 91.7532 10.2685 91.7404 10.1057C91.6725 10.2459 91.6133 10.3904 91.5633 10.5385ZM91.8485 9.899C91.853 10.0858 91.8718 10.2698 91.9038 10.45C92.0185 10.2911 92.1453 10.1401 92.2833 9.99836C92.2273 9.81446 92.1851 9.62573 92.1576 9.43364C92.0433 9.58127 91.9399 9.73682 91.8485 9.899ZM92.1381 9.27155C92.0339 9.39782 91.9377 9.53027 91.8503 9.668C91.8536 9.58109 91.8601 9.49364 91.8698 9.40582C91.8774 9.33618 91.887 9.26727 91.8985 9.199C91.9643 9.05675 92.0389 8.91908 92.1218 8.78657C92.1166 8.94976 92.1223 9.11164 92.1381 9.27155ZM92.2609 9.306C92.2836 9.50936 92.3232 9.70918 92.3787 9.90373C92.538 9.75082 92.711 9.60973 92.8963 9.48264C92.8135 9.28209 92.7477 9.07488 92.7 8.86297C92.5414 8.99946 92.3946 9.14764 92.2609 9.306ZM92.6734 8.73418C92.5206 8.86125 92.378 8.99869 92.2466 9.14518C92.2345 8.96283 92.236 8.77797 92.252 8.59182C92.3605 8.43969 92.4804 8.29542 92.6102 8.16007C92.6165 8.3538 92.6378 8.54565 92.6734 8.73418ZM92.8026 8.77754C92.8479 8.99602 92.9129 9.20964 92.9965 9.41609C93.2052 9.28164 93.4286 9.16445 93.6649 9.06705C93.5465 8.85175 93.4489 8.62648 93.3736 8.39435C93.171 8.50651 92.9801 8.63494 92.8026 8.77754ZM93.3392 8.28255C93.1411 8.39046 92.9537 8.5134 92.7786 8.64958C92.7446 8.45052 92.7271 8.24788 92.7269 8.04342C92.8771 7.89936 93.0393 7.76666 93.2119 7.64678C93.2362 7.86226 93.2788 8.07491 93.3392 8.28255ZM93.4795 8.33775C93.5546 8.57473 93.6536 8.80446 93.775 9.0235C93.9896 8.94205 94.2142 8.87673 94.4477 8.82935L94.6348 8.79139C94.4596 8.55923 94.3125 8.31075 94.1949 8.05101C93.9444 8.12502 93.7051 8.22149 93.4795 8.33775ZM94.1492 7.94597C93.9035 8.01923 93.6685 8.11348 93.4462 8.22635C93.3857 8.01275 93.3445 7.79383 93.3234 7.57206C93.5154 7.44792 93.7193 7.33924 93.9331 7.24789C93.9826 7.48626 94.0549 7.72004 94.1492 7.94597ZM94.3097 8.01892C94.4298 8.28165 94.5811 8.5324 94.762 8.76559L95.7709 8.56093C95.5547 8.35015 95.3681 8.12004 95.2106 7.87576L94.966 7.90031C94.7405 7.92295 94.5212 7.963 94.3097 8.01892ZM95.1441 7.76859L94.9536 7.7877C94.7163 7.81151 94.4857 7.85406 94.2634 7.91365C94.1667 7.6837 94.0935 7.44534 94.0447 7.20218C94.2818 7.10904 94.5304 7.03694 94.7877 6.98834C94.8762 7.2584 94.9952 7.52021 95.1441 7.76859ZM94.7537 6.87932C94.6846 6.6452 94.6384 6.4055 94.6153 6.16349C94.3926 6.23303 94.1779 6.32079 93.9733 6.42513C93.9699 6.64777 93.9869 6.8696 94.0237 7.08805C94.2572 6.99796 94.5013 6.92766 94.7537 6.87932ZM93.9112 7.13329C93.8739 6.92076 93.8547 6.70504 93.8543 6.48833C93.6694 6.59036 93.4936 6.70619 93.3284 6.83449C93.3063 7.03783 93.3015 7.24107 93.3134 7.44238C93.5025 7.32442 93.7024 7.22084 93.9112 7.13329ZM93.1995 7.51604C93.1847 7.32503 93.1846 7.13214 93.1995 6.93889C93.0557 7.06052 92.9208 7.19201 92.7962 7.33243C92.7599 7.51592 92.7382 7.69955 92.7303 7.88211C92.8769 7.74954 93.0338 7.62712 93.1995 7.51604ZM92.6085 7.99685C92.6103 7.83636 92.6225 7.67486 92.6454 7.51315C92.5486 7.63662 92.4593 7.76602 92.3783 7.90083C92.3594 7.96759 92.3424 8.0352 92.3271 8.10363C92.3079 8.18993 92.2919 8.27617 92.279 8.36224C92.381 8.23407 92.4911 8.11205 92.6085 7.99685ZM92.1365 8.5528C92.1442 8.47 92.1547 8.38695 92.1682 8.30377C92.1022 8.45176 92.0455 8.60484 91.9989 8.76239C92.0425 8.69107 92.0884 8.62118 92.1365 8.5528ZM92.5261 7.47666C92.5771 7.41014 92.6304 7.34526 92.6855 7.28211C92.7024 7.20059 92.7219 7.11913 92.7444 7.03779C92.6626 7.17828 92.5895 7.32474 92.5261 7.47666ZM92.9974 6.65794C92.9714 6.72238 92.947 6.78784 92.9244 6.85429C92.8958 6.93824 92.8705 7.02244 92.8482 7.10679C92.9637 6.98954 93.0865 6.87922 93.2157 6.77638C93.235 6.617 93.2648 6.45764 93.3053 6.29914C93.1956 6.41224 93.0926 6.53201 92.9974 6.65794ZM93.4751 6.13443C93.4189 6.31324 93.3772 6.49367 93.3494 6.6744C93.5098 6.55715 93.6792 6.45102 93.8562 6.35705C93.8625 6.16564 93.8834 5.97381 93.9194 5.78313C93.763 5.88977 93.6145 6.00714 93.4751 6.13443ZM93.9533 5.6231C93.8134 5.71252 93.6792 5.81004 93.5515 5.91518C93.5829 5.83344 93.6174 5.75214 93.655 5.67144C93.6847 5.60774 93.7161 5.54519 93.7489 5.48382C93.8575 5.36798 93.9731 5.25906 94.0946 5.15745C94.037 5.31104 93.99 5.46654 93.9533 5.6231ZM94.059 5.69214C94.0147 5.89214 93.9878 6.09377 93.9775 6.29516C94.1786 6.19667 94.3886 6.11358 94.6061 6.04732C94.5922 5.83225 94.5967 5.61579 94.62 5.40023C94.425 5.4833 94.2374 5.58098 94.059 5.69214ZM94.6364 5.26987C94.4499 5.34568 94.2698 5.43436 94.0974 5.535C94.1449 5.35804 94.2062 5.18278 94.2816 5.01055C94.4341 4.89784 94.5947 4.7959 94.7621 4.70542C94.7053 4.89145 94.6635 5.08014 94.6364 5.26987ZM94.8132 4.54964C94.8669 4.39756 94.9307 4.24756 95.0049 4.10054C94.8728 4.18945 94.746 4.28624 94.6253 4.39059C94.5858 4.44842 94.5478 4.50757 94.5112 4.56803C94.4649 4.64454 94.4218 4.72194 94.3816 4.80011C94.5202 4.70826 94.6643 4.62464 94.8132 4.54964ZM94.1843 4.93937C94.2185 4.86295 94.2553 4.78713 94.295 4.71201C94.1844 4.83324 94.081 4.96206 93.9859 5.09813C94.0504 5.04316 94.1165 4.99024 94.1843 4.93937ZM94.9032 4.03065C94.9733 3.98244 95.0449 3.93642 95.1179 3.89261C95.1603 3.82004 95.2052 3.74834 95.2528 3.6776C95.1296 3.78711 95.0127 3.90487 94.9032 4.03065ZM93.4557 5.83644C93.4245 5.91502 93.3962 5.99402 93.3705 6.07334C93.3088 6.13061 93.2488 6.18977 93.1908 6.25078C93.2705 6.10614 93.359 5.96789 93.4557 5.83644ZM91.7336 9.62064C91.7294 9.70482 91.728 9.78855 91.7293 9.87173C91.689 9.94464 91.651 10.0188 91.6155 10.0942C91.6445 9.93273 91.6841 9.77464 91.7336 9.62064ZM91.3211 13.7286C91.3444 13.8098 91.3701 13.8898 91.3983 13.9685C91.3835 14.0495 91.3714 14.1312 91.362 14.2133C91.3374 14.0513 91.3239 13.8895 91.3211 13.7286ZM98.2805 1.45423C98.3624 1.42906 98.4452 1.40641 98.529 1.38627C98.5928 1.32976 98.6586 1.27484 98.7271 1.22164C98.5738 1.28941 98.4252 1.36693 98.2805 1.45423ZM99.1652 1.05629C99.1043 1.09382 99.0452 1.13311 98.9852 1.17416C98.9109 1.22604 98.8386 1.27993 98.7681 1.33568C98.9338 1.30557 99.1014 1.28516 99.269 1.27449C99.3833 1.15643 99.5052 1.04422 99.6357 0.938727C99.4776 0.968663 99.3205 1.00784 99.1652 1.05629ZM99.8747 0.900733C99.7195 1.01389 99.5738 1.13643 99.4405 1.267C100.46 1.24239 101.491 1.57594 102.309 2.27887L105.045 4.63036C106.487 5.87014 107.577 7.41508 108.24 9.12073C108.293 9.09891 108.345 9.07577 108.398 9.05142C107.903 7.46934 107.044 5.99541 105.864 4.74493L103.401 2.13333C102.478 1.15453 101.146 0.735838 99.8747 0.900733ZM108.505 8.99932C108.004 7.40877 107.14 5.92704 105.953 4.66915L103.489 2.05756C102.59 1.10434 101.315 0.667091 100.072 0.766253C100.147 0.717733 100.225 0.671324 100.305 0.627154C100.369 0.59226 100.433 0.559199 100.497 0.527954C102.003 0.218149 103.628 0.755325 104.592 2.02172L106.756 4.8648C107.684 6.08525 108.338 7.45857 108.693 8.89909L108.624 8.93687C108.585 8.95843 108.545 8.97925 108.505 8.99932ZM108.432 9.16154C108.381 9.18454 108.331 9.20645 108.28 9.22727C108.317 9.32391 108.352 9.42109 108.385 9.51882C108.432 9.50854 108.478 9.49736 108.524 9.48527C108.495 9.37691 108.464 9.269 108.432 9.16154ZM108.638 9.45355C108.607 9.33854 108.575 9.224 108.54 9.11009C108.588 9.08605 108.636 9.06102 108.683 9.03494L108.72 9.01453C108.75 9.14264 108.779 9.27127 108.803 9.40036C108.749 9.41936 108.694 9.43709 108.638 9.45355ZM108.553 9.59518C108.509 9.60655 108.466 9.61709 108.422 9.62691C108.451 9.71245 108.479 9.79827 108.504 9.88445C108.543 9.88227 108.582 9.87955 108.62 9.87618C108.6 9.78218 108.577 9.68855 108.553 9.59518ZM108.74 9.86391C108.717 9.76345 108.693 9.66327 108.667 9.56355C108.72 9.54791 108.773 9.53118 108.825 9.51327C108.845 9.62336 108.864 9.73373 108.881 9.84445C108.834 9.85182 108.787 9.85836 108.74 9.86391ZM108.646 9.98764C108.61 9.99091 108.574 9.99364 108.538 9.99591C108.56 10.0716 108.581 10.1476 108.602 10.2238C108.634 10.227 108.664 10.2297 108.696 10.2321C108.68 10.1505 108.663 10.0689 108.646 9.98764ZM108.818 10.2395C108.801 10.1511 108.783 10.063 108.764 9.97509C108.809 9.96973 108.854 9.96354 108.898 9.95654C108.912 10.0518 108.923 10.1472 108.935 10.2428C108.896 10.2423 108.857 10.2412 108.818 10.2395ZM108.718 10.3473C108.689 10.3454 108.661 10.3431 108.634 10.3406C108.651 10.4075 108.667 10.4746 108.683 10.5419C108.707 10.5479 108.73 10.5538 108.754 10.5594C108.742 10.4885 108.73 10.4178 108.718 10.3473ZM108.879 10.5869C108.866 10.509 108.853 10.4312 108.839 10.3536C108.875 10.355 108.911 10.3558 108.947 10.3562C108.956 10.4388 108.963 10.5216 108.97 10.6045C108.94 10.599 108.909 10.5931 108.879 10.5869ZM108.773 10.6803C108.753 10.6757 108.733 10.6711 108.713 10.6663C108.726 10.7247 108.739 10.7834 108.751 10.8422C108.767 10.8489 108.782 10.8555 108.799 10.862C108.79 10.8013 108.781 10.7407 108.773 10.6803ZM108.924 10.9112C108.916 10.8427 108.906 10.7744 108.897 10.7061C108.924 10.7114 108.952 10.7164 108.98 10.7211C108.984 10.7925 108.989 10.8641 108.992 10.9356C108.969 10.9277 108.947 10.9195 108.924 10.9112ZM109.113 10.9754C109.142 10.9846 109.173 10.9935 109.202 11.0021C109.205 10.919 109.206 10.836 109.207 10.7529C109.171 10.749 109.135 10.7445 109.1 10.7395C109.105 10.8181 109.109 10.8967 109.113 10.9754ZM109.091 10.6239C109.129 10.6295 109.168 10.6345 109.207 10.6389C109.206 10.5427 109.204 10.4465 109.201 10.3504C109.157 10.3529 109.112 10.3546 109.066 10.3555C109.076 10.4448 109.084 10.5344 109.091 10.6239ZM109.054 10.2425C109.101 10.2416 109.15 10.2399 109.198 10.2372C109.193 10.1255 109.186 10.0138 109.178 9.90227C109.123 9.91491 109.069 9.92627 109.015 9.93645C109.029 10.0383 109.042 10.1403 109.054 10.2425ZM108.998 9.82418C109.055 9.81345 109.112 9.80127 109.169 9.78782C109.158 9.65691 109.144 9.52618 109.128 9.39582L109.089 9.41236C109.04 9.43364 108.989 9.45373 108.938 9.47282C108.96 9.58964 108.98 9.70673 108.998 9.82418ZM108.916 9.35927C108.958 9.34327 109 9.32645 109.04 9.30891L109.113 9.27818C109.094 9.13027 109.071 8.98276 109.044 8.83569L108.828 8.95524C108.86 9.08938 108.889 9.22409 108.916 9.35927ZM108.8 8.83999L109.023 8.71684C108.785 7.44613 108.318 6.21214 107.629 5.07284L105.788 2.02941C104.796 0.389619 102.726 -0.285498 100.926 0.348912C102.34 0.212693 103.792 0.777862 104.687 1.95515L106.852 4.79824C107.782 6.02162 108.44 7.39706 108.8 8.83999ZM109.155 8.7753C109.181 8.92645 109.205 9.07809 109.226 9.23009L113.075 7.59459C115.086 6.73973 117.431 7.54281 118.427 9.38773C118.34 9.02519 118.195 8.66874 117.99 8.32976C116.881 6.4974 114.427 5.86959 112.507 6.9275L109.155 8.7753ZM118.505 9.83164C118.48 9.76736 118.452 9.70327 118.421 9.63964C117.52 7.70674 115.148 6.83745 113.122 7.69804L109.241 9.34754C109.259 9.48418 109.273 9.62109 109.285 9.75818C109.328 9.74645 109.372 9.73391 109.415 9.72055L113.614 8.41812C115.543 7.81981 117.6 8.64898 118.528 10.2955C118.53 10.1412 118.522 9.98627 118.505 9.83164ZM118.517 10.5263C117.666 8.81026 115.592 7.92361 113.651 8.52581L109.451 9.82827C109.399 9.84436 109.347 9.85945 109.295 9.87327C109.303 9.99164 109.311 10.1102 109.316 10.2287C109.458 10.2164 109.6 10.1959 109.741 10.1673L114.06 9.29091C115.812 8.93546 117.541 9.69691 118.433 11.0713C118.475 10.8921 118.502 10.7099 118.517 10.5263ZM118.52 11.2118C118.561 11.056 118.593 10.8977 118.614 10.738C118.648 10.8189 118.68 10.9014 118.708 10.9855C118.731 11.0518 118.751 11.1184 118.77 11.185C118.77 11.3405 118.76 11.4952 118.741 11.6484C118.677 11.4974 118.602 11.3516 118.52 11.2118ZM118.393 11.228C117.546 9.83218 115.827 9.04815 114.085 9.40173L109.766 10.278C109.618 10.308 109.469 10.3294 109.32 10.3421C109.323 10.4448 109.325 10.5476 109.325 10.6505C109.554 10.6693 109.785 10.6675 110.017 10.6442L114.408 10.2036C115.927 10.0513 117.34 10.705 118.18 11.8036C118.267 11.6173 118.339 11.4247 118.393 11.228ZM118.26 11.911C118.345 11.7355 118.417 11.5544 118.475 11.3694C118.563 11.5312 118.64 11.7006 118.705 11.8768C118.671 12.0582 118.623 12.2366 118.562 12.4109C118.474 12.2364 118.373 12.0694 118.26 11.911ZM118.123 11.9215C117.313 10.8236 115.92 10.1659 114.42 10.3163L110.029 10.7568C109.794 10.7805 109.559 10.7826 109.325 10.7642C109.325 10.8539 109.323 10.9437 109.32 11.0335C109.618 11.1075 109.926 11.146 110.239 11.146H114.655C115.895 11.146 117.007 11.6676 117.765 12.4935C117.902 12.3124 118.022 12.1208 118.123 11.9215ZM117.844 12.5824C117.979 12.4067 118.098 12.2215 118.2 12.0291C118.316 12.1978 118.418 12.3761 118.505 12.5628C118.429 12.7528 118.338 12.9371 118.231 13.1137C118.118 12.9263 117.987 12.7485 117.844 12.5824ZM118.299 13.2284C118.393 13.3972 118.476 13.5734 118.544 13.7557C118.623 13.5887 118.691 13.4161 118.745 13.2394C118.7 13.0576 118.641 12.8814 118.571 12.7115C118.494 12.8896 118.402 13.0625 118.299 13.2284ZM118.634 12.5594C118.7 12.7067 118.758 12.859 118.806 13.0157C118.841 12.8651 118.868 12.7119 118.885 12.557C118.874 12.4889 118.86 12.4207 118.845 12.3525C118.826 12.266 118.803 12.1808 118.779 12.0971C118.74 12.254 118.692 12.4084 118.634 12.5594ZM118.828 11.8675C118.856 11.9462 118.881 12.0261 118.905 12.1073C118.902 11.9465 118.889 11.7848 118.864 11.6229C118.855 11.7049 118.842 11.7865 118.828 11.8675ZM118.931 13.0019C118.912 13.0828 118.891 13.163 118.867 13.2424C118.887 13.3236 118.904 13.4059 118.919 13.4892C118.933 13.3285 118.938 13.1658 118.931 13.0019ZM118.849 13.9344C118.845 13.8651 118.84 13.7956 118.832 13.7259C118.822 13.6381 118.809 13.5514 118.794 13.4657C118.739 13.6177 118.673 13.7663 118.599 13.9105C118.649 14.0637 118.69 14.221 118.72 14.3816C118.772 14.2357 118.816 14.0864 118.849 13.9344ZM118.757 14.6133C118.767 14.6956 118.775 14.7789 118.78 14.8628C118.812 14.7052 118.834 14.5444 118.845 14.3813C118.819 14.4596 118.789 14.5369 118.757 14.6133ZM118.74 10.7357C118.708 10.6573 118.674 10.5804 118.638 10.5049C118.643 10.4227 118.646 10.3404 118.647 10.2577C118.689 10.4165 118.72 10.576 118.74 10.7357ZM100.042 0.64862C99.969 0.694746 99.8976 0.742794 99.8281 0.792656C99.7424 0.804347 99.6576 0.818595 99.5728 0.835409C99.7262 0.76302 99.8833 0.700807 100.042 0.64862ZM117.7 18.3593C117.649 18.4258 117.596 18.4908 117.54 18.5541C117.524 18.6356 117.504 18.7172 117.481 18.7986C117.563 18.658 117.637 18.5114 117.7 18.3593ZM117.229 19.1785C117.255 19.1141 117.28 19.0487 117.301 18.9823C117.33 18.8983 117.356 18.8139 117.378 18.7295C117.262 18.8468 117.14 18.9573 117.01 19.0603C116.991 19.2197 116.961 19.3792 116.92 19.5378C117.03 19.4245 117.134 19.3045 117.229 19.1785ZM116.855 19.7635C116.83 19.8431 116.801 19.9223 116.77 20.0011C116.867 19.8693 116.956 19.7306 117.036 19.5855C116.978 19.6468 116.917 19.7061 116.855 19.7635ZM116.751 19.7025C116.807 19.5235 116.848 19.3431 116.877 19.1623C116.716 19.2795 116.546 19.3857 116.369 19.4797C116.363 19.6713 116.342 19.8631 116.306 20.0538C116.462 19.9472 116.611 19.8297 116.751 19.7025ZM116.166 20.1448C116.211 19.9447 116.238 19.7431 116.248 19.5416C116.047 19.6401 115.837 19.7232 115.62 19.7895C115.633 20.0045 115.629 20.2211 115.605 20.4366C115.8 20.3536 115.988 20.2559 116.166 20.1448ZM115.48 20.4876C115.508 20.2665 115.515 20.0442 115.502 19.8233C115.26 19.8895 115.01 19.9351 114.754 19.9579C114.797 20.1976 114.817 20.4406 114.813 20.6836C115.041 20.6367 115.265 20.5709 115.48 20.4876ZM114.694 20.7062C114.699 20.4587 114.68 20.211 114.635 19.9668C114.404 19.981 114.17 19.9768 113.933 19.9531L113.741 19.9338C113.833 20.2064 113.892 20.4861 113.92 20.7678C114.182 20.7715 114.441 20.7503 114.694 20.7062ZM113.8 20.7645C113.771 20.4792 113.708 20.196 113.612 19.9209L112.586 19.8179C112.723 20.082 112.826 20.3559 112.897 20.6346L113.139 20.6837C113.36 20.7286 113.581 20.7553 113.8 20.7645ZM112.768 20.6085C112.694 20.3334 112.586 20.0634 112.445 19.8038L111.355 19.6944L111.491 19.9203C111.586 20.0767 111.668 20.2368 111.738 20.3995L112.768 20.6085ZM114.293 22.7764C114.218 22.8174 114.141 22.856 114.064 22.8923C114.014 22.9603 113.961 23.0271 113.906 23.0927C114.041 22.9961 114.17 22.8906 114.293 22.7764Z" fill="#4845D2"/>
<path d="M3.40892 19.3489H0V34.0314H9.43688V31.1544H3.40892V19.3489Z" fill="#4845D2"/>
<path d="M9.7627 29.0512C9.7627 32.1862 11.966 34.2695 15.2918 34.2695C18.5968 34.2695 20.8001 32.1862 20.8001 29.0512C20.8001 25.9163 18.5968 23.8131 15.2918 23.8131C11.966 23.8131 9.7627 25.9163 9.7627 29.0512ZM12.9845 29.0314C12.9845 27.5433 13.8992 26.5512 15.2918 26.5512C16.6636 26.5512 17.5783 27.5433 17.5783 29.0314C17.5783 30.5394 16.6636 31.5314 15.2918 31.5314C13.8992 31.5314 12.9845 30.5394 12.9845 29.0314Z" fill="#4845D2"/>
<path d="M21.3151 28.8924C21.3151 31.8885 23.3521 33.9123 26.2413 33.9123C27.634 33.9123 28.8396 33.4362 29.4424 32.6623V34.0313C29.4424 35.4004 28.5486 36.3131 26.9689 36.3131C25.5554 36.3131 24.5785 35.6782 24.5161 34.5473H21.2734C21.5645 37.2655 23.7678 39.0909 26.7818 39.0909C30.3362 39.0909 32.5811 36.8885 32.5811 33.3964V24.1107H29.6918L29.5255 25.1226C28.9435 24.3092 27.7172 23.7734 26.3037 23.7734C23.3936 23.7734 21.3151 25.8568 21.3151 28.8924ZM24.5576 28.8131C24.5576 27.3845 25.5554 26.4322 26.8233 26.4322C28.2992 26.4322 29.38 27.3647 29.38 28.8131C29.38 30.2615 28.3199 31.2536 26.8441 31.2536C25.5762 31.2536 24.5576 30.2615 24.5576 28.8131Z" fill="#4845D2"/>
<path d="M33.5137 29.0512C33.5137 32.1862 35.717 34.2695 39.0428 34.2695C42.3478 34.2695 44.5511 32.1862 44.5511 29.0512C44.5511 25.9163 42.3478 23.8131 39.0428 23.8131C35.717 23.8131 33.5137 25.9163 33.5137 29.0512ZM36.7356 29.0314C36.7356 27.5433 37.6501 26.5512 39.0428 26.5512C40.4147 26.5512 41.3293 27.5433 41.3293 29.0314C41.3293 30.5394 40.4147 31.5314 39.0428 31.5314C37.6501 31.5314 36.7356 30.5394 36.7356 29.0314Z" fill="#4845D2"/>
<path d="M47.3106 22.5631C48.3084 22.5631 49.1191 21.7894 49.1191 20.8171C49.1191 19.8449 48.3084 19.0909 47.3106 19.0909C46.2921 19.0909 45.4814 19.8449 45.4814 20.8171C45.4814 21.7894 46.2921 22.5631 47.3106 22.5631ZM45.6893 34.0314H48.9112V24.1108H45.6893V34.0314Z" fill="#4845D2"/>
<path d="M50.7871 38.7932H53.9466V33.0393C54.5494 33.7932 55.9213 34.3091 57.3556 34.3091C60.4526 34.3091 62.3234 32.0472 62.2403 28.9123C62.1571 25.7178 60.2241 23.7932 57.3347 23.7932C55.8589 23.7932 54.4663 24.4083 53.8843 25.321L53.718 24.1107H50.7871V38.7932ZM54.009 29.071C54.009 27.5829 55.0483 26.5908 56.5449 26.5908C58.0623 26.5908 59.0184 27.6028 59.0184 29.071C59.0184 30.5393 58.0623 31.5512 56.5449 31.5512C55.0483 31.5512 54.009 30.5591 54.009 29.071Z" fill="#4845D2"/>
<path d="M62.5811 30.8964C62.6642 32.9004 64.3271 34.2893 66.9461 34.2893C69.4612 34.2893 71.2072 33.0194 71.2072 30.9758C71.2072 29.5075 70.2927 28.5353 68.5882 28.1385L66.7383 27.7019C66.0731 27.5432 65.6573 27.3845 65.6573 26.8687C65.6573 26.3528 66.0939 26.0155 66.7383 26.0155C67.4657 26.0155 67.9438 26.4718 67.9231 27.1464H70.8123C70.7291 25.0829 69.0871 23.7932 66.8006 23.7932C64.4933 23.7932 62.7681 25.1028 62.7681 27.0869C62.7681 28.4162 63.5371 29.5075 65.5951 30.0234L67.4242 30.4798C67.9646 30.6187 68.1932 30.8568 68.1932 31.194C68.1932 31.69 67.7151 32.0075 66.9046 32.0075C65.9691 32.0075 65.4703 31.5908 65.4703 30.8964H62.5811Z" fill="#4845D2"/>
<path d="M76.1078 34.2894C77.3758 34.2894 78.6437 33.7337 79.2881 32.9203L79.496 34.0314H82.51V24.1107H79.3088V29.2694C79.3088 30.7575 78.8516 31.5711 77.3758 31.5711C76.2325 31.5711 75.4843 31.075 75.4843 29.2298V24.1107H72.2832V30.3409C72.2832 32.702 73.655 34.2894 76.1078 34.2894Z" fill="#4845D2"/>
<path d="M87.5862 34.0313V28.6147C87.5862 26.9481 88.5215 26.4718 89.4361 26.4718C90.4546 26.4718 91.1198 27.0671 91.1198 28.2973V34.0313H94.2792V28.6147C94.2792 26.9282 95.1939 26.452 96.108 26.452C97.127 26.452 97.8127 27.0473 97.8127 28.2973V34.0313H100.931V27.5433C100.931 25.2813 99.6832 23.7734 97.0023 23.7734C95.5061 23.7734 94.2792 24.4679 93.7388 25.5393C93.1152 24.4679 92.0344 23.7734 90.3091 23.7734C89.1659 23.7734 88.1058 24.2694 87.4822 25.0631L87.3575 24.1107H84.3643V34.0313H87.5862Z" fill="#4845D2"/>
</g>
<defs>
<clipPath id="clip0_28_192">
<rect width="120" height="40" fill="white"/>
</clipPath>
</defs>
</svg>
