<svg width="120" height="40" viewBox="0 0 120 40" fill="none" xmlns="http://www.w3.org/2000/svg">
<path d="M40.3945 26.3636H43.0174V11.3091H40.3945V26.3636Z" fill="#55AE36"/>
<path d="M48.3978 26.6981C51.1406 26.6981 52.9406 24.5445 52.9406 20.739C52.9406 17.059 51.1921 14.759 48.3978 14.759C45.6549 14.759 43.8721 16.9127 43.8721 20.739C43.8721 24.4399 45.6035 26.6981 48.3978 26.6981ZM48.3978 24.1054C47.2149 24.1054 46.5635 22.9136 46.5635 20.739C46.5635 18.5436 47.1978 17.3518 48.3978 17.3518C49.5978 17.3518 50.2492 18.5645 50.2492 20.739C50.2492 22.9345 49.6149 24.1054 48.3978 24.1054Z" fill="#55AE36"/>
<path d="M57.2075 26.3845C58.2018 26.3845 59.0247 25.8827 59.6075 24.8999V26.7818C59.6075 28.3499 58.9732 28.8727 58.0304 28.8727C57.1218 28.8727 56.4189 28.329 56.3161 27.3254H53.6932C54.0189 30.0645 55.7161 31.319 58.0647 31.319C60.4818 31.319 62.2304 29.7508 62.2304 26.7399V15.1145H59.6075V16.1599C59.0418 15.2399 58.2361 14.759 57.2075 14.759C54.9104 14.759 53.4189 16.8499 53.4189 20.5927C53.4189 24.1681 54.8761 26.3845 57.2075 26.3845ZM57.8418 23.7918C56.7104 23.7918 56.1104 22.6418 56.1104 20.5927C56.1104 18.4809 56.7104 17.3518 57.8418 17.3518C58.9904 17.3518 59.6075 18.5018 59.6075 20.5718C59.6075 22.6627 59.0075 23.7918 57.8418 23.7918Z" fill="#55AE36"/>
<path d="M67.6263 26.6981C70.3692 26.6981 72.1692 24.5445 72.1692 20.739C72.1692 17.059 70.4206 14.759 67.6263 14.759C64.8834 14.759 63.1006 16.9127 63.1006 20.739C63.1006 24.4399 64.832 26.6981 67.6263 26.6981ZM67.6263 24.1054C66.4434 24.1054 65.792 22.9136 65.792 20.739C65.792 18.5436 66.4263 17.3518 67.6263 17.3518C68.8263 17.3518 69.4777 18.5645 69.4777 20.739C69.4777 22.9345 68.8434 24.1054 67.6263 24.1054Z" fill="#55AE36"/>
<path d="M73.042 13.9854H75.6651V11.3091H73.042V13.9854ZM73.042 26.3636H75.6651V15.1145H73.042V26.3636Z" fill="#55AE36"/>
<path d="M79.5359 30.9845V25.2345C80.0845 26.1963 80.8731 26.6981 81.8502 26.6981C84.1988 26.6981 85.7245 24.5445 85.7245 20.7181C85.7245 17.0381 84.2331 14.759 81.8502 14.759C80.8902 14.759 80.1017 15.3027 79.5359 16.2854V15.1145H76.9131V30.9845H79.5359ZM81.3017 17.3518C82.4159 17.3518 83.0331 18.5436 83.0331 20.7181C83.0331 22.9136 82.4331 24.1054 81.3017 24.1054C80.1531 24.1054 79.5359 22.8927 79.5359 20.7181C79.5359 18.5436 80.1359 17.3518 81.3017 17.3518Z" fill="#55AE36"/>
<path d="M88.8742 18.2299C88.8742 17.6236 89.3199 17.2054 90.0056 17.2054C90.9313 17.2054 91.4799 17.6863 91.6342 18.8363H94.2399C93.9827 15.9927 92.3027 14.759 90.0913 14.759C87.6227 14.759 86.3713 16.5154 86.3713 18.3972C86.3713 22.9136 91.9599 20.969 91.9599 23.1436C91.9599 23.8336 91.497 24.2727 90.5713 24.2727C89.5942 24.2727 88.8913 23.7081 88.7713 22.6627H86.1484C86.4913 25.4436 88.1713 26.6981 90.5027 26.6981C92.9027 26.6981 94.5827 25.1718 94.5827 22.9554C94.5827 18.5018 88.8742 20.4463 88.8742 18.2299Z" fill="#55AE36"/>
<path d="M101.045 21.5754C101.045 23.0181 100.393 24.1054 99.382 24.1054C98.4563 24.1054 98.0106 23.3945 98.0106 21.9518V15.1145H95.3877V22.6C95.3877 25.4018 96.6734 26.6981 98.422 26.6981C99.5363 26.6981 100.445 26.1127 101.045 24.8581V26.3636H103.668V15.1145H101.045V21.5754Z" fill="#55AE36"/>
<path d="M104.936 26.3636H107.558V19.9027C107.558 18.4599 108.158 17.3518 109.067 17.3518C109.907 17.3518 110.318 18.0836 110.318 19.5054V26.3636H112.924V19.9027C112.924 18.4599 113.541 17.3518 114.45 17.3518C115.29 17.3518 115.684 18.0836 115.684 19.5054V26.3636H118.307V18.8572C118.307 16.0763 117.038 14.759 115.324 14.759C114.176 14.759 113.198 15.3445 112.564 16.6199C112.101 15.3654 111.176 14.759 110.078 14.759C109.016 14.759 108.141 15.3236 107.558 16.5363V15.1145H104.936V26.3636Z" fill="#55AE36"/>
<path d="M30.4471 30.957C33.2883 27.8624 35.0306 23.6862 35.0306 19.091C35.0306 9.55151 27.5223 1.81824 18.2604 1.81824C8.99851 1.81824 1.49023 9.55151 1.49023 19.091C1.49023 28.6304 8.99851 36.3637 18.2604 36.3637C20.888 36.3637 23.3744 35.7413 25.5883 34.6318C28.189 36.5897 31.3752 37.9971 34.8941 37.7002C33.0351 37.1239 31.436 34.7891 30.4471 30.957Z" fill="#B6EFA2"/>
<path d="M30.5592 19.0909C30.5592 26.12 25.0531 31.8182 18.261 31.8182C11.469 31.8182 5.96289 26.12 5.96289 19.0909C5.96289 12.0618 11.469 6.36365 18.261 6.36365C25.0531 6.36365 30.5592 12.0618 30.5592 19.0909Z" fill="#88E169"/>
<path d="M26.0867 19.0909C26.0867 23.6096 22.5829 27.2727 18.2607 27.2727C13.9384 27.2727 10.4346 23.6096 10.4346 19.0909C10.4346 14.5721 13.9384 10.9091 18.2607 10.9091C22.5829 10.9091 26.0867 14.5721 26.0867 19.0909Z" fill="#55AE36"/>
</svg>
