<svg width="24" height="24" viewBox="0 0 24 24" fill="none" xmlns="http://www.w3.org/2000/svg">
<path fill-rule="evenodd" clip-rule="evenodd" d="M5.47032 5.47C5.61094 5.32955 5.80157 5.25066 6.00032 5.25066C6.19907 5.25066 6.38969 5.32955 6.53032 5.47L18.5303 17.47C18.604 17.5387 18.6631 17.6215 18.7041 17.7135C18.7451 17.8055 18.7671 17.9048 18.7689 18.0055C18.7707 18.1062 18.7522 18.2062 18.7144 18.2996C18.6767 18.393 18.6206 18.4778 18.5494 18.549C18.4781 18.6203 18.3933 18.6764 18.2999 18.7141C18.2065 18.7518 18.1065 18.7704 18.0058 18.7686C17.9051 18.7668 17.8058 18.7448 17.7138 18.7038C17.6218 18.6628 17.539 18.6037 17.4703 18.53L5.47032 6.53C5.32987 6.38937 5.25098 6.19875 5.25098 6C5.25098 5.80125 5.32987 5.61062 5.47032 5.47Z" fill="#F17322"/>
<path fill-rule="evenodd" clip-rule="evenodd" d="M18.5298 5.47C18.6703 5.61062 18.7492 5.80125 18.7492 6C18.7492 6.19875 18.6703 6.38937 18.5298 6.53L6.52985 18.53C6.38767 18.6625 6.19963 18.7346 6.00532 18.7312C5.81102 18.7277 5.62564 18.649 5.48822 18.5116C5.35081 18.3742 5.2721 18.1888 5.26867 17.9945C5.26524 17.8002 5.33737 17.6122 5.46985 17.47L17.4698 5.47C17.6105 5.32955 17.8011 5.25066 17.9998 5.25066C18.1986 5.25066 18.3892 5.32955 18.5298 5.47Z" fill="#F17322"/>
</svg>
