<svg width="20" height="20" viewBox="0 0 20 20" fill="none" xmlns="http://www.w3.org/2000/svg">
<g clip-path="url(#clip0_28_145)">
<path d="M18.3337 10C18.3337 11.0943 18.1181 12.178 17.6993 13.189C17.2805 14.2001 16.6667 15.1187 15.8929 15.8926C15.1191 16.6664 14.2004 17.2802 13.1894 17.699C12.1783 18.1178 11.0947 18.3333 10.0003 18.3333C8.90598 18.3333 7.82234 18.1178 6.8113 17.699C5.80025 17.2802 4.88159 16.6664 4.10777 15.8926C3.33395 15.1187 2.72012 14.2001 2.30133 13.189C1.88254 12.178 1.66699 11.0943 1.66699 10C1.66699 8.90565 1.88254 7.82202 2.30133 6.81097C2.72012 5.79992 3.33395 4.88126 4.10777 4.10744C4.88159 3.33362 5.80025 2.71979 6.8113 2.301C7.82234 1.88221 8.90598 1.66667 10.0003 1.66667C11.0947 1.66667 12.1783 1.88221 13.1894 2.301C14.2004 2.71979 15.1191 3.33362 15.8929 4.10744C16.6667 4.88127 17.2805 5.79993 17.6993 6.81097C18.1181 7.82202 18.3337 8.90565 18.3337 10L18.3337 10Z" stroke="#F17322" stroke-width="1.5"/>
<path d="M13.3337 10C13.3337 11.0943 13.2474 12.178 13.0799 13.189C12.9124 14.2001 12.6669 15.1187 12.3573 15.8926C12.0478 16.6664 11.6804 17.2802 11.2759 17.699C10.8715 18.1178 10.4381 18.3333 10.0003 18.3333C9.56259 18.3333 9.12913 18.1178 8.72471 17.699C8.3203 17.2802 7.95283 16.6664 7.6433 15.8926C7.33377 15.1187 7.08824 14.2001 6.92073 13.189C6.75321 12.178 6.66699 11.0943 6.66699 10C6.66699 8.90565 6.75321 7.82202 6.92073 6.81097C7.08824 5.79992 7.33377 4.88126 7.6433 4.10744C7.95283 3.33362 8.3203 2.71979 8.72471 2.301C9.12913 1.88221 9.56259 1.66667 10.0003 1.66667C10.4381 1.66667 10.8715 1.88221 11.2759 2.301C11.6804 2.71979 12.0478 3.33362 12.3573 4.10744C12.6669 4.88127 12.9124 5.79993 13.0799 6.81097C13.2474 7.82202 13.3337 8.90565 13.3337 10L13.3337 10Z" stroke="#F17322" stroke-width="1.5"/>
<path d="M1.66699 10H18.3337" stroke="#F17322" stroke-width="1.5" stroke-linecap="round"/>
</g>
<defs>
<clipPath id="clip0_28_145">
<rect width="20" height="20" fill="white"/>
</clipPath>
</defs>
</svg>
