<svg width="20" height="20" viewBox="0 0 20 20" fill="none" xmlns="http://www.w3.org/2000/svg">
<path d="M1.66699 10C1.66699 6.8573 1.66699 5.28596 2.6433 4.30964C3.61961 3.33333 5.19096 3.33333 8.33366 3.33333H11.667C14.8097 3.33333 16.381 3.33333 17.3573 4.30964C18.3337 5.28596 18.3337 6.8573 18.3337 10C18.3337 13.1427 18.3337 14.714 17.3573 15.6904C16.381 16.6667 14.8097 16.6667 11.667 16.6667H8.33366C5.19096 16.6667 3.61961 16.6667 2.6433 15.6904C1.66699 14.714 1.66699 13.1427 1.66699 10Z" stroke="#F17322" stroke-width="1.5"/>
<path d="M5 6.66667L6.79908 8.1659C8.32961 9.44134 9.09488 10.0791 10 10.0791C10.9051 10.0791 11.6704 9.44134 13.2009 8.1659L15 6.66667" stroke="#F17322" stroke-width="1.5" stroke-linecap="round"/>
</svg>
