<svg width="18" height="18" viewBox="0 0 18 18" fill="none" xmlns="http://www.w3.org/2000/svg">
<path d="M7.77877 9.84524C7.37232 9.3041 7.17288 8.6354 7.21648 7.96002C7.26009 7.28464 7.54386 6.64714 8.01652 6.16274L11.054 3.06974C11.307 2.80996 11.6094 2.60348 11.9435 2.46249C12.2776 2.32151 12.6365 2.24887 12.9991 2.24887C13.3618 2.24887 13.7207 2.32151 14.0548 2.46249C14.3888 2.60348 14.6913 2.80996 14.9443 3.06974C15.4606 3.59921 15.7495 4.30947 15.7495 5.04899C15.7495 5.78852 15.4606 6.49878 14.9443 7.02824L12.9125 9.22574M9.88027 7.98824C10.3928 8.51712 10.6793 9.22467 10.6793 9.96112C10.6793 10.6976 10.3928 11.4051 9.88027 11.934L6.94477 14.9302C6.69181 15.1899 6.3894 15.3963 6.0554 15.5372C5.72139 15.6781 5.36254 15.7507 5.00002 15.7507C4.6375 15.7507 4.27866 15.6781 3.94465 15.5372C3.61064 15.3963 3.30824 15.1899 3.05527 14.9302C2.53897 14.4008 2.25 13.6905 2.25 12.951C2.25 12.2115 2.53897 11.5012 3.05527 10.9717L5.01052 8.91749" stroke="#1F6AE1" stroke-width="1.125" stroke-miterlimit="10" stroke-linecap="round" stroke-linejoin="round"/>
</svg>
