<svg width="50" height="50" viewBox="0 0 50 50" fill="none" xmlns="http://www.w3.org/2000/svg">
<path fill-rule="evenodd" clip-rule="evenodd" d="M18.0818 9.35955C24.3112 3.13015 34.4111 3.13015 40.6405 9.35955C46.8699 15.5889 46.8699 25.6888 40.6405 31.9182C36.5028 36.0558 30.6583 37.4432 25.3799 36.0877C25.0676 36.0075 24.8293 36.1014 24.713 36.2176L16.9789 43.9517C15.981 44.9497 14.5835 45.4399 13.1808 45.2841L8.82957 44.8006C8.01305 44.7099 7.2517 44.344 6.67077 43.763L6.23699 43.3292C5.65606 42.7483 5.29014 41.987 5.19942 41.1704L4.71595 36.8192C4.56009 35.4165 5.05031 34.019 6.04826 33.0211L13.7818 25.2875C13.8985 25.1709 13.9923 24.9317 13.9123 24.6201C12.5568 19.3417 13.9442 13.4972 18.0818 9.35955ZM38.4308 11.5693C33.4218 6.56025 25.3006 6.56025 20.2915 11.5693C16.9669 14.8939 15.847 19.5902 16.9391 23.8429C17.2538 25.0685 16.997 26.4917 15.9915 27.4973L8.25797 35.2308C7.93129 35.5575 7.77081 36.0149 7.82183 36.4741L8.3053 40.8253C8.31767 40.9366 8.36754 41.0404 8.4467 41.1195L8.88048 41.5533C8.95964 41.6325 9.06339 41.6823 9.17467 41.6947L13.5259 42.1782C13.9851 42.2292 14.4425 42.0687 14.7692 41.742L16.2425 40.2688L13.7156 37.7696C13.1021 37.1628 13.0967 36.1735 13.7035 35.56C14.3103 34.9464 15.2996 34.941 15.9132 35.5478L18.4522 38.0591L22.5033 34.0079C23.5093 33.002 24.9322 32.7464 26.1572 33.0609C30.4098 34.153 35.1061 33.0331 38.4308 29.7085C43.4398 24.6995 43.4398 16.5783 38.4308 11.5693ZM25.1155 16.7822C27.3529 14.5448 30.9804 14.5448 33.2178 16.7822C35.4552 19.0196 35.4552 22.6471 33.2178 24.8845C30.9804 27.1218 27.3529 27.1218 25.1155 24.8845C22.8782 22.6471 22.8782 19.0196 25.1155 16.7822ZM31.0081 18.9919C29.9911 17.9749 28.3422 17.9749 27.3253 18.9919C26.3083 20.0089 26.3083 21.6578 27.3253 22.6748C28.3422 23.6917 29.9911 23.6917 31.0081 22.6748C32.0251 21.6578 32.0251 20.0089 31.0081 18.9919Z" fill="#FCFCFC"/>
</svg>
