<svg width="50" height="50" viewBox="0 0 50 50" fill="none" xmlns="http://www.w3.org/2000/svg">
<path d="M37.4997 41.6666C38.6047 41.6666 39.6645 41.2276 40.446 40.4462C41.2274 39.6648 41.6663 38.605 41.6663 37.4999V12.4999C41.6663 11.3948 41.2274 10.335 40.446 9.55361C39.6645 8.77221 38.6047 8.33322 37.4997 8.33322M8.33301 14.2666V35.7332C8.33301 39.052 8.33301 40.7124 9.30176 41.8707C10.2684 43.027 11.9059 43.3249 15.1768 43.9186L21.4268 45.052C25.9788 45.8791 28.2559 46.2916 29.7518 45.0457C31.2497 43.7978 31.2497 41.4874 31.2497 36.8686V13.1311C31.2497 8.51239 31.2497 6.20197 29.7518 4.95405C28.2559 3.70822 25.9809 4.12072 21.4247 4.9478L15.1747 6.08114C11.9038 6.67489 10.2684 6.9728 9.29967 8.12905C8.33301 9.28739 8.33301 10.9478 8.33301 14.2666Z" stroke="#FCFCFC" stroke-width="3.125" stroke-linecap="round" stroke-linejoin="round"/>
<path d="M23.958 24.9957V24.9749" stroke="#FCFCFC" stroke-width="4.16667" stroke-linecap="round" stroke-linejoin="round"/>
</svg>
