<svg width="50" height="50" viewBox="0 0 50 50" fill="none" xmlns="http://www.w3.org/2000/svg">
<path d="M4.16699 36.4583H16.667M16.667 42.7083H4.16699M33.3337 36.4583H45.8337M45.8337 42.7083H33.3337M28.1253 25H21.8753V33.3333H28.1253V25Z" stroke="#FCFCFC" stroke-width="3.125" stroke-linecap="round" stroke-linejoin="round"/>
<path d="M35.4173 14.5834C35.4173 17.3461 34.3198 19.9956 32.3663 21.9491C30.4128 23.9026 27.7633 25.0001 25.0007 25.0001C22.238 25.0001 19.5885 23.9026 17.635 21.9491C15.6815 19.9956 14.584 17.3461 14.584 14.5834C14.584 11.8207 15.6815 9.17122 17.635 7.21772C19.5885 5.26422 22.238 4.16675 25.0007 4.16675C27.7633 4.16675 30.4128 5.26422 32.3663 7.21772C34.3198 9.17122 35.4173 11.8207 35.4173 14.5834Z" stroke="#FCFCFC" stroke-width="3.125"/>
<path d="M25.0003 14.5835L28.1253 11.4585M29.167 33.3335H20.8337C18.8691 33.3335 17.8878 33.3335 17.2774 33.9439C16.667 34.5543 16.667 35.5356 16.667 37.5002V41.6668C16.667 43.6314 16.667 44.6127 17.2774 45.2231C17.8878 45.8335 18.8691 45.8335 20.8337 45.8335H29.167C31.1316 45.8335 32.1128 45.8335 32.7232 45.2231C33.3337 44.6127 33.3337 43.6314 33.3337 41.6668V37.5002C33.3337 35.5356 33.3337 34.5543 32.7232 33.9439C32.1128 33.3335 31.1316 33.3335 29.167 33.3335Z" stroke="#FCFCFC" stroke-width="3.125" stroke-linecap="round" stroke-linejoin="round"/>
</svg>
