<svg width="18" height="18" viewBox="0 0 18 18" fill="none" xmlns="http://www.w3.org/2000/svg">
<g clip-path="url(#clip0_895_5895)">
<path d="M9 0C6.61359 0 4.32281 0.948797 2.63672 2.63602C0.948898 4.32391 0.000482975 6.61301 0 9C0 11.386 0.949219 13.6768 2.63672 15.364C4.32281 17.0512 6.61359 18 9 18C11.3864 18 13.6772 17.0512 15.3633 15.364C17.0508 13.6768 18 11.386 18 9C18 6.61402 17.0508 4.32323 15.3633 2.63602C13.6772 0.948797 11.3864 0 9 0Z" fill="url(#paint0_linear_895_5895)"/>
<path d="M4.07413 8.90494C6.69819 7.76194 8.44756 7.00838 9.32225 6.64425C11.8226 5.60461 12.3415 5.42405 12.6804 5.41793C12.7549 5.41674 12.9208 5.43516 13.0291 5.5227C13.1191 5.59652 13.1444 5.69637 13.1571 5.76647C13.1683 5.8365 13.1838 5.99611 13.1712 6.1207C13.0362 7.54383 12.4498 10.9973 12.1516 12.5913C12.0265 13.2657 11.7776 13.4918 11.5371 13.5139C11.014 13.562 10.6174 13.1685 10.1112 12.8368C9.31944 12.3175 8.87225 11.9943 8.10303 11.4877C7.21428 10.9021 7.79085 10.5802 8.2971 10.0543C8.42928 9.91659 10.7327 7.82199 10.7763 7.632C10.7819 7.60824 10.7876 7.51964 10.7341 7.47295C10.6821 7.42613 10.6048 7.44216 10.5485 7.45481C10.4683 7.47281 9.20413 8.30925 6.75163 9.96399C6.39303 10.2106 6.06819 10.3309 5.77569 10.3245C5.45506 10.3177 4.83631 10.1429 4.37647 9.99352C3.81397 9.81028 3.36538 9.71339 3.40475 9.40219C3.42444 9.24019 3.64803 9.07439 4.07413 8.90494Z" fill="white"/>
</g>
<defs>
<linearGradient id="paint0_linear_895_5895" x1="900" y1="0" x2="900" y2="1800" gradientUnits="userSpaceOnUse">
<stop stop-color="#2AABEE"/>
<stop offset="1" stop-color="#229ED9"/>
</linearGradient>
<clipPath id="clip0_895_5895">
<rect width="18" height="18" fill="white"/>
</clipPath>
</defs>
</svg>
