<svg width="24" height="23" viewBox="0 0 24 23" fill="none" xmlns="http://www.w3.org/2000/svg">
<path fill-rule="evenodd" clip-rule="evenodd" d="M13.482 4.47001C13.6227 4.32956 13.8133 4.25067 14.012 4.25067C14.2108 4.25067 14.4014 4.32956 14.542 4.47001L21.53 11.47C21.6705 11.6106 21.7494 11.8013 21.7494 12C21.7494 12.1988 21.6705 12.3894 21.53 12.53L14.542 19.53C14.4007 19.6667 14.2112 19.7424 14.0146 19.7408C13.8179 19.7392 13.6298 19.6604 13.4907 19.5214C13.3516 19.3824 13.2726 19.1943 13.2708 18.9977C13.269 18.801 13.3445 18.6115 13.481 18.47L19.19 12.751L2.99905 12.762C2.80014 12.7623 2.60926 12.6835 2.46842 12.543C2.32758 12.4026 2.24831 12.2119 2.24805 12.013C2.24778 11.8141 2.32655 11.6232 2.46701 11.4824C2.60747 11.3415 2.79813 11.2623 2.99705 11.262L19.191 11.252L13.48 5.53001C13.3396 5.38939 13.2607 5.19876 13.2607 5.00001C13.2607 4.80126 13.3396 4.61064 13.48 4.47001" fill="#37393F"/>
</svg>
