<svg width="22" height="22" viewBox="0 0 22 22" fill="none" xmlns="http://www.w3.org/2000/svg">
<path d="M12.0382 10.4324L10.9162 9.31004C10.6593 9.053 10.311 8.90816 9.9475 8.90719C9.58404 8.90623 9.23497 9.04921 8.97663 9.30488L1.17652 16.5034C0.892492 16.7711 0.706008 17.1123 0.68882 17.4943C0.680525 17.6838 0.711387 17.8729 0.779478 18.0499C0.847569 18.2269 0.951427 18.3879 1.08456 18.523L2.76034 20.2172C2.76124 20.2183 2.76225 20.2193 2.76335 20.2202C3.02234 20.4783 3.3727 20.6238 3.73831 20.625H3.78902C4.17101 20.6108 4.51304 20.4316 4.7846 20.145L12.0334 12.3806C12.162 12.2532 12.2641 12.1016 12.3339 11.9346C12.4037 11.7676 12.4399 11.5885 12.4404 11.4075C12.4408 11.2265 12.4055 11.0472 12.3365 10.8798C12.2675 10.7125 12.1661 10.5604 12.0382 10.4324ZM21.0547 8.16406L21.0414 8.15074L19.5689 6.69324C19.4826 6.60727 19.3802 6.53924 19.2675 6.49307C19.1548 6.44691 19.0341 6.42352 18.9123 6.42426C18.715 6.42447 18.5227 6.4867 18.3627 6.60215C18.3627 6.58367 18.3653 6.56563 18.3666 6.54973C18.3859 6.27043 18.416 5.84848 18.1432 5.46606C17.8188 5.02881 17.4626 4.61605 17.0775 4.23113C17.0765 4.22988 17.0753 4.22873 17.0741 4.2277C16.5017 3.66395 15.2561 2.60219 13.3478 1.82402C12.6241 1.52706 11.8493 1.37452 11.0671 1.375C9.71097 1.375 8.67972 1.98688 8.28484 2.34953C8.06125 2.56311 7.85733 2.79637 7.67554 3.04649C7.5887 3.16636 7.54286 3.31105 7.54484 3.45906C7.54683 3.60707 7.59653 3.75049 7.68656 3.86798C7.77659 3.98548 7.90214 4.07078 8.04454 4.11121C8.18693 4.15163 8.33857 4.14501 8.47691 4.09234C8.59743 4.04735 8.72054 4.00961 8.84558 3.97934C9.10601 3.92428 9.3731 3.90764 9.63835 3.92992C10.2051 3.97676 10.8754 4.2582 11.1719 4.49238C11.6746 4.89672 11.9166 5.44156 11.9565 6.25797C11.9643 6.42211 11.6248 7.03742 11.0971 7.73953C10.9966 7.87203 10.9476 8.03648 10.959 8.20239C10.9705 8.36831 11.0417 8.52445 11.1594 8.64188L12.638 10.1204C12.7622 10.245 12.9295 10.3171 13.1053 10.3221C13.2812 10.3271 13.4523 10.2644 13.5833 10.1471C14.0014 9.77367 14.6382 9.21078 14.8608 9.07285C15.1912 8.86961 15.4275 8.83051 15.4924 8.82363C15.6608 8.80718 15.8301 8.84288 15.9775 8.9259C15.9783 8.93326 15.9775 8.94068 15.9752 8.94771C15.9729 8.95474 15.9691 8.96121 15.9642 8.96672L15.886 9.04106L15.8731 9.05309C15.7867 9.13918 15.7182 9.24151 15.6715 9.3542C15.6248 9.46688 15.6009 9.58769 15.6011 9.70967C15.6013 9.83164 15.6256 9.95237 15.6727 10.0649C15.7197 10.1774 15.7886 10.2795 15.8753 10.3654L17.3474 11.8224C17.4337 11.9083 17.5361 11.9763 17.6488 12.0224C17.7615 12.0685 17.8822 12.0918 18.0039 12.091C18.2484 12.0914 18.4833 11.9957 18.6579 11.8246L21.0427 9.46902C21.0509 9.46086 21.059 9.45227 21.0667 9.44367C21.2267 9.2683 21.3144 9.03888 21.3122 8.8015C21.31 8.56413 21.218 8.3364 21.0547 8.16406Z" fill="#FCFCFC"/>
</svg>
