<svg width="20" height="20" viewBox="0 0 20 20" fill="none" xmlns="http://www.w3.org/2000/svg">
<g clip-path="url(#clip0_28_1078)">
<path d="M5 6.75631C5 3.94542 7.23858 1.66675 10 1.66675C12.7614 1.66675 15 3.94542 15 6.75631C15 9.54517 13.4042 12.7995 10.9143 13.9633C10.3339 14.2346 9.66609 14.2346 9.08567 13.9633C6.59583 12.7995 5 9.54517 5 6.75631Z" stroke="#F17322" stroke-width="1.5"/>
<path d="M11.6673 6.66667C11.6673 7.58714 10.9211 8.33333 10.0007 8.33333C9.08018 8.33333 8.33398 7.58714 8.33398 6.66667C8.33398 5.74619 9.08018 5 10.0007 5C10.9211 5 11.6673 5.74619 11.6673 6.66667Z" stroke="#F17322" stroke-width="1.5"/>
<path d="M9.99935 17.2396L10.4932 17.804C10.656 17.6616 10.7493 17.4559 10.7493 17.2396C10.7493 17.0233 10.656 16.8176 10.4932 16.6752L9.99935 17.2396ZM17.9322 11.9122C17.6076 11.6549 17.1358 11.7096 16.8786 12.0342C16.6214 12.3589 16.676 12.8306 17.0007 13.0878L17.4665 12.5L17.9322 11.9122ZM2.998 13.0878C3.32266 12.8306 3.37732 12.3589 3.12008 12.0342C2.86285 11.7096 2.39113 11.6549 2.06647 11.9122L2.53224 12.5L2.998 13.0878ZM8.74935 16.1458L9.24323 15.5814C9.02176 15.3876 8.70742 15.3413 8.43944 15.4629C8.17145 15.5845 7.99935 15.8516 7.99935 16.1458H8.74935ZM8.74935 18.3333H7.99935C7.99935 18.6276 8.17145 18.8947 8.43944 19.0163C8.70742 19.1379 9.02176 19.0916 9.24323 18.8978L8.74935 18.3333ZM12.0071 16.39C11.595 16.4318 11.2947 16.7997 11.3365 17.2118C11.3783 17.6239 11.7462 17.9242 12.1583 17.8824L12.0827 17.1362L12.0071 16.39ZM8.74935 17.2029L8.79369 16.4542C6.85177 16.3392 5.177 15.9529 4.01395 15.4254C3.43117 15.1611 3.01164 14.877 2.74807 14.6044C2.48787 14.3354 2.41602 14.119 2.41602 13.9583H1.66602H0.916016C0.916016 14.6201 1.2284 15.1908 1.66987 15.6473C2.10795 16.1002 2.70749 16.4799 3.39438 16.7914C4.77065 17.4156 6.63755 17.8291 8.705 17.9516L8.74935 17.2029ZM17.4665 12.5L17.0007 13.0878C17.4635 13.4545 17.5827 13.7561 17.5827 13.9583H18.3327H19.0827C19.0827 13.1129 18.5784 12.4241 17.9322 11.9122L17.4665 12.5ZM1.66602 13.9583H2.41602C2.41602 13.7561 2.53523 13.4545 2.998 13.0878L2.53224 12.5L2.06647 11.9122C1.42033 12.4241 0.916016 13.1129 0.916016 13.9583H1.66602ZM9.99935 17.2396L10.4932 16.6752L9.24323 15.5814L8.74935 16.1458L8.25547 16.7103L9.50547 17.804L9.99935 17.2396ZM8.74935 16.1458H7.99935V17.2029H8.74935H9.49935V16.1458H8.74935ZM8.74935 17.2029H7.99935V18.3333H8.74935H9.49935V17.2029H8.74935ZM8.74935 18.3333L9.24323 18.8978L10.4932 17.804L9.99935 17.2396L9.50547 16.6752L8.25547 17.7689L8.74935 18.3333ZM18.3327 13.9583H17.5827C17.5827 14.2621 17.2901 14.7771 16.2195 15.3135C15.2122 15.8183 13.7453 16.2139 12.0071 16.39L12.0827 17.1362L12.1583 17.8824C14.0143 17.6943 15.6724 17.2654 16.8915 16.6546C18.0474 16.0753 19.0827 15.1835 19.0827 13.9583H18.3327Z" fill="#F17322"/>
</g>
<defs>
<clipPath id="clip0_28_1078">
<rect width="20" height="20" fill="white"/>
</clipPath>
</defs>
</svg>
