<svg width="50" height="50" viewBox="0 0 50 50" fill="none" xmlns="http://www.w3.org/2000/svg">
<path d="M40.1667 10.2708L35.75 5.85413C34.125 4.22913 31.4792 4.22913 29.8542 5.85413L23.9583 11.75L28.375 16.1666L32.7917 11.75L40.1667 19.125C41.3384 17.9495 41.9963 16.3575 41.9963 14.6979C41.9963 13.0382 41.3384 11.4462 40.1667 10.2708ZM11.4375 28.6875C12.6667 29.9166 14.6458 29.9166 15.8542 28.6875L21 23.5416L16.5833 19.1041L11.4375 24.25C10.2083 25.4791 10.2083 27.4583 11.4375 28.6875Z" fill="#FCFCFC"/>
<path d="M29.8544 17.625L28.3752 19.1041L21.7502 12.4791C21.4615 12.1869 21.1176 11.9548 20.7385 11.7964C20.3594 11.6381 19.9527 11.5565 19.5419 11.5565C19.131 11.5565 18.7243 11.6381 18.3452 11.7964C17.9661 11.9548 17.6222 12.1869 17.3335 12.4791C17.0412 12.7679 16.8092 13.1117 16.6508 13.4908C16.4924 13.8699 16.4109 14.2766 16.4109 14.6875C16.4109 15.0983 16.4924 15.5051 16.6508 15.8841C16.8092 16.2632 17.0412 16.6071 17.3335 16.8958L23.9585 23.5208L9.37518 38.1041C7.91685 39.5625 7.54185 41.9375 8.77102 43.625C9.12236 44.12 9.57737 44.5325 10.1044 44.8337C10.6314 45.1349 11.2177 45.3177 11.8225 45.3693C12.4273 45.4208 13.0361 45.3399 13.6065 45.1322C14.1769 44.9245 14.6951 44.595 15.1252 44.1666L34.271 25C34.4639 25.1929 34.6929 25.3459 34.9449 25.4502C35.1969 25.5546 35.467 25.6084 35.7398 25.6084C36.0125 25.6084 36.2826 25.5546 36.5346 25.4502C36.7867 25.3459 37.0156 25.1929 37.2085 25C37.4014 24.8071 37.5544 24.5781 37.6588 24.3261C37.7632 24.0741 37.8169 23.804 37.8169 23.5312C37.8169 23.2585 37.7632 22.9884 37.6588 22.7363C37.5544 22.4843 37.4014 22.2554 37.2085 22.0625L32.7918 17.6458C32.6018 17.449 32.3744 17.2922 32.1229 17.1844C31.8715 17.0766 31.601 17.0201 31.3275 17.0182C31.0539 17.0163 30.7827 17.0689 30.5298 17.1731C30.2768 17.2773 30.0472 17.4309 29.8544 17.625Z" fill="#FCFCFC"/>
</svg>
