<svg width="50" height="50" viewBox="0 0 50 50" fill="none" xmlns="http://www.w3.org/2000/svg">
<path fill-rule="evenodd" clip-rule="evenodd" d="M22.3932 6.77088H27.6068C29.873 6.77083 31.7238 6.77079 33.1848 6.95787C34.7062 7.15268 36.0398 7.5744 37.1131 8.59664C38.1972 9.6291 38.6546 10.9293 38.8641 12.4137C39.0626 13.8199 39.0626 15.5954 39.0625 17.7421V19.9435C39.8973 19.5067 40.8483 19.2709 41.819 19.2709C45.3776 19.2709 48.4246 22.5152 47.0884 26.0969L44.7562 32.3481C44.7399 32.3917 44.7239 32.4348 44.7081 32.4772C44.3481 33.4426 44.1015 34.104 43.7659 34.683C42.7293 36.4712 41.0398 37.8013 39.0625 38.5025V41.6667C39.0625 42.5297 38.363 43.2292 37.5 43.2292C36.6371 43.2292 35.9375 42.5297 35.9375 41.6667V39.0535C35.5466 39.0627 35.1028 39.0626 34.5718 39.0625L14.333 39.0625C14.2166 39.0625 14.142 39.0625 14.0725 39.0616C14.0692 39.0615 14.0658 39.0615 14.0625 39.0614V41.6667C14.0625 42.5297 13.363 43.2292 12.5 43.2292C11.6371 43.2292 10.9375 42.5297 10.9375 41.6667V38.8889C10.9375 38.7609 10.9529 38.6365 10.9819 38.5175C8.60439 37.6873 6.63549 35.9522 5.7164 33.6116C5.69208 33.5497 5.66729 33.4832 5.63128 33.3867L2.91165 26.0969C1.57541 22.5152 4.62243 19.2709 8.18102 19.2709C9.15169 19.2709 10.1027 19.5067 10.9375 19.9435L10.9375 17.7421C10.9374 15.5954 10.9374 13.8199 11.1359 12.4137C11.3454 10.9293 11.8028 9.6291 12.8869 8.59664C13.9602 7.5744 15.2938 7.15268 16.8152 6.95787C18.2762 6.77079 20.127 6.77083 22.3932 6.77088ZM10.9375 24.8509V25H10.998L12.792 29.4209C12.8057 29.4546 12.8193 29.4884 12.833 29.5224C12.9982 29.9314 13.1705 30.3581 13.4346 30.7252C14.0349 31.5596 14.9436 32.1085 15.9332 32.3094C16.3641 32.3969 16.8222 32.3964 17.3199 32.3959C17.3572 32.3959 17.3947 32.3959 17.4324 32.3959H31.9723C32.0462 32.3959 32.1197 32.396 32.1928 32.3962C33.1533 32.398 34.0506 32.3998 34.8419 32.0737C35.2724 31.8963 35.6726 31.6475 36.0202 31.3336C36.6795 30.7381 37.0125 29.9106 37.3336 29.1125C37.3594 29.0484 37.3851 28.9845 37.4109 28.9209L39.002 25H39.0625V24.8509L39.4958 23.7833C39.8016 23.0296 40.682 22.3959 41.819 22.3959C43.7363 22.3959 44.5559 23.9448 44.1605 25.0046L41.8283 31.2558C41.4019 32.3987 41.2488 32.7941 41.0623 33.1158C40.2347 34.5435 38.6484 35.602 36.7312 35.8717C36.2892 35.9338 35.7778 35.9375 34.4441 35.9375H14.3465C14.2126 35.9375 14.1612 35.9375 14.1163 35.9369C11.5402 35.9008 9.39839 34.4385 8.62517 32.4694C8.61186 32.4355 8.59699 32.3958 8.55413 32.2809L5.83953 25.0046C5.44416 23.9448 6.26376 22.3959 8.18102 22.3959C9.31803 22.3959 10.1984 23.0296 10.5042 23.7833L10.9375 24.8509ZM35.9375 24.241V17.8572C35.9375 15.5661 35.9339 14.0127 35.7698 12.8505C35.6132 11.7414 35.3383 11.2218 34.958 10.8596C34.5668 10.4871 33.9897 10.2114 32.7879 10.0576C31.5487 9.89889 29.8992 9.89588 27.5 9.89588H22.5C20.1009 9.89588 18.4513 9.89889 17.2121 10.0576C16.0103 10.2114 15.4332 10.4871 15.0421 10.8596C14.6617 11.2218 14.3868 11.7414 14.2302 12.8505C14.0662 14.0127 14.0625 15.5661 14.0625 17.8572V24.241L15.6877 28.2458C15.7968 28.5149 15.86 28.6696 15.913 28.785C15.9497 28.8651 15.9675 28.8942 15.9714 28.9002C16.0758 29.0454 16.2738 29.1898 16.555 29.2469C16.6359 29.2633 16.7522 29.2709 17.4324 29.2709H31.9723C33.2998 29.2709 33.5112 29.2421 33.6512 29.1844C33.7621 29.1387 33.854 29.0792 33.9256 29.0144C33.9279 29.0124 33.9704 28.9797 34.0684 28.7874C34.1799 28.5688 34.3033 28.2681 34.5153 27.7458L35.9375 24.241Z" fill="#FCFCFC"/>
</svg>
