<svg width="50" height="50" viewBox="0 0 50 50" fill="none" xmlns="http://www.w3.org/2000/svg">
<path fill-rule="evenodd" clip-rule="evenodd" d="M17.1878 8.33337C17.1878 7.47043 17.8874 6.77087 18.7503 6.77087H31.2503C32.1133 6.77087 32.8128 7.47043 32.8128 8.33337C32.8128 9.19632 32.1133 9.89587 31.2503 9.89587H26.5628V34.375C26.5628 37.5392 29.1279 40.1042 32.292 40.1042C35.3344 40.1042 37.823 37.7327 38.0099 34.7373C34.4495 34.0091 31.7712 30.859 31.7712 27.0834V23.3334C31.7712 21.0897 33.59 19.2709 35.8337 19.2709H43.3337C45.5773 19.2709 47.3962 21.0897 47.3962 23.3334V27.0834C47.3962 30.8656 44.7084 34.0201 41.1387 34.7411C40.9468 39.4614 37.0594 43.2292 32.292 43.2292C29.2677 43.2292 26.5976 41.713 25.0003 39.3992C23.403 41.713 20.7329 43.2292 17.7087 43.2292C12.9413 43.2292 9.05388 39.4614 8.86193 34.7411C5.29222 34.0201 2.60449 30.8656 2.60449 27.0834V22.6191C2.60449 20.7699 4.10354 19.2709 5.95271 19.2709H14.8813C16.7304 19.2709 18.2295 20.7699 18.2295 22.6191V27.0834C18.2295 30.859 15.5511 34.0091 11.9908 34.7373C12.1777 37.7327 14.6662 40.1042 17.7087 40.1042C20.8728 40.1042 23.4378 37.5392 23.4378 34.375V9.89587H18.7503C17.8874 9.89587 17.1878 9.19632 17.1878 8.33337ZM5.95271 22.3959C5.82943 22.3959 5.72949 22.4958 5.72949 22.6191V27.0834C5.72949 29.6722 7.82816 31.7709 10.417 31.7709C13.0058 31.7709 15.1045 29.6722 15.1045 27.0834V22.6191C15.1045 22.4958 15.0046 22.3959 14.8813 22.3959H5.95271ZM35.8337 22.3959C35.3159 22.3959 34.8962 22.8156 34.8962 23.3334V27.0834C34.8962 29.6722 36.9948 31.7709 39.5837 31.7709C42.1725 31.7709 44.2712 29.6722 44.2712 27.0834V23.3334C44.2712 22.8156 43.8514 22.3959 43.3337 22.3959H35.8337Z" fill="#FCFCFC"/>
</svg>
