<svg width="18" height="18" viewBox="0 0 18 18" fill="none" xmlns="http://www.w3.org/2000/svg">
<g clip-path="url(#clip0_895_5890)">
<path d="M0.38588 8.89228C0.385458 10.4046 0.783607 11.8813 1.54068 13.1829L0.313477 17.63L4.89894 16.4367C6.16722 17.122 7.58823 17.481 9.03226 17.4811H9.03606C13.8031 17.4811 17.6836 13.6312 17.6856 8.89905C17.6865 6.606 16.7876 4.44977 15.1544 2.82754C13.5214 1.20545 11.3497 0.311654 9.03571 0.310608C4.26811 0.310608 0.387919 4.16038 0.38595 8.89228" fill="url(#paint0_linear_895_5890)"/>
<path d="M0.078145 8.88949C0.0776529 10.4563 0.490072 11.9858 1.27414 13.334L0.00292969 17.9405L4.75281 16.7044C6.06155 17.4126 7.53507 17.786 9.03446 17.7866H9.03832C13.9764 17.7866 17.9963 13.7981 17.9984 8.8966C17.9992 6.52116 17.0679 4.28742 15.3764 2.60707C13.6846 0.92693 11.4352 0.000976744 9.03832 0C4.09942 0 0.0801132 3.98791 0.078145 8.88949ZM2.90687 13.1018L2.72952 12.8223C1.98397 11.6458 1.59046 10.2862 1.59103 8.89005C1.59257 4.81598 4.93326 1.5014 9.04113 1.5014C11.0305 1.50223 12.9 2.27191 14.3062 3.66837C15.7123 5.06498 16.486 6.92149 16.4855 8.89605C16.4837 12.9701 13.143 16.2851 9.03832 16.2851H9.03537C7.69886 16.2844 6.38807 15.9282 5.24494 15.255L4.9729 15.0949L2.15423 15.8283L2.90687 13.1018Z" fill="url(#paint1_linear_895_5890)"/>
<path d="M6.79777 5.17311C6.63005 4.80314 6.45354 4.79567 6.29404 4.78918C6.16343 4.7836 6.01413 4.78402 5.86496 4.78402C5.71566 4.78402 5.47307 4.83976 5.26802 5.06197C5.06276 5.28439 4.48438 5.82188 4.48438 6.91507C4.48438 8.00825 5.28665 9.06481 5.39849 9.2132C5.51047 9.36132 6.94729 11.6765 9.22287 12.5671C11.1141 13.3073 11.4989 13.1601 11.9094 13.123C12.3199 13.086 13.234 12.5856 13.4205 12.0668C13.6071 11.548 13.6071 11.1033 13.5512 11.0103C13.4952 10.9178 13.3459 10.8622 13.122 10.7511C12.8982 10.64 11.7974 10.1024 11.5922 10.0282C11.387 9.95414 11.2377 9.91716 11.0884 10.1396C10.9391 10.3618 10.5104 10.8622 10.3797 11.0103C10.2492 11.1589 10.1185 11.1774 9.89467 11.0662C9.67064 10.9547 8.94963 10.7204 8.09422 9.96348C7.42867 9.37451 6.97934 8.64718 6.84874 8.42469C6.71813 8.20255 6.83475 8.08214 6.94701 7.97141C7.0476 7.87186 7.17097 7.71195 7.28302 7.58225C7.39464 7.45248 7.4319 7.3599 7.50655 7.21172C7.58128 7.06339 7.54388 6.93362 7.488 6.82248C7.4319 6.71134 6.99685 5.61244 6.79777 5.17311Z" fill="white"/>
</g>
<defs>
<linearGradient id="paint0_linear_895_5890" x1="868.92" y1="1732.25" x2="868.92" y2="0.310608" gradientUnits="userSpaceOnUse">
<stop stop-color="#1FAF38"/>
<stop offset="1" stop-color="#60D669"/>
</linearGradient>
<linearGradient id="paint1_linear_895_5890" x1="899.774" y1="1794.05" x2="899.774" y2="0" gradientUnits="userSpaceOnUse">
<stop stop-color="#F9F9F9"/>
<stop offset="1" stop-color="white"/>
</linearGradient>
<clipPath id="clip0_895_5890">
<rect width="18" height="18" fill="white"/>
</clipPath>
</defs>
</svg>
